solid OpenSCAD_Model
  facet normal -1 0 0
    outer loop
      vertex 0 66.5 0
      vertex 0 33.5 2
      vertex 0 66.5 23
    endloop
  endfacet
  facet normal -1 0 0
    outer loop
      vertex 0 15 0
      vertex 0 33.5 2
      vertex 0 66.5 0
    endloop
  endfacet
  facet normal -1 -0 0
    outer loop
      vertex 0 33.5 2
      vertex 0 15 0
      vertex 0 15 2
    endloop
  endfacet
  facet normal -1 -0 0
    outer loop
      vertex 0 66.5 23
      vertex 0 33.5 2
      vertex 0 33.5 23
    endloop
  endfacet
  facet normal 0 0 1
    outer loop
      vertex 31.663 39.8112 2
      vertex 38.2 40.5 2
      vertex 31.8 40.5 2
    endloop
  endfacet
  facet normal 0 0 1
    outer loop
      vertex 31.2728 39.2272 2
      vertex 38.2 40.5 2
      vertex 31.663 39.8112 2
    endloop
  endfacet
  facet normal 0 0 1
    outer loop
      vertex 38.2 40.5 2
      vertex 31.6728 10.2728 2
      vertex 32.063 9.68883 2
    endloop
  endfacet
  facet normal 0 0 1
    outer loop
      vertex 30.6888 38.837 2
      vertex 38.2 40.5 2
      vertex 31.2728 39.2272 2
    endloop
  endfacet
  facet normal 0 0 1
    outer loop
      vertex 38.2 40.5 2
      vertex 31.0888 10.663 2
      vertex 31.6728 10.2728 2
    endloop
  endfacet
  facet normal 0 0 1
    outer loop
      vertex 38.2 40.5 2
      vertex 30.6888 38.837 2
      vertex 31.0888 10.663 2
    endloop
  endfacet
  facet normal 0 0 1
    outer loop
      vertex 30.6888 38.837 2
      vertex 30.4 10.8 2
      vertex 31.0888 10.663 2
    endloop
  endfacet
  facet normal -0 0 1
    outer loop
      vertex 30 38.7 2
      vertex 30.4 10.8 2
      vertex 30.6888 38.837 2
    endloop
  endfacet
  facet normal 0 0 1
    outer loop
      vertex 30 38.7 2
      vertex 29.7112 10.663 2
      vertex 30.4 10.8 2
    endloop
  endfacet
  facet normal 0 0 1
    outer loop
      vertex 29.3112 38.837 2
      vertex 29.7112 10.663 2
      vertex 30 38.7 2
    endloop
  endfacet
  facet normal -0 0 1
    outer loop
      vertex 20.6888 38.837 2
      vertex 29.7112 10.663 2
      vertex 29.3112 38.837 2
    endloop
  endfacet
  facet normal -0 0 1
    outer loop
      vertex 20 38.7 2
      vertex 29.7112 10.663 2
      vertex 20.6888 38.837 2
    endloop
  endfacet
  facet normal 0 0 1
    outer loop
      vertex 20.6888 38.837 2
      vertex 29.3112 38.837 2
      vertex 28.7272 39.2272 2
    endloop
  endfacet
  facet normal 0 0 1
    outer loop
      vertex 29.7112 10.663 2
      vertex 20 38.7 2
      vertex 29.1272 10.2728 2
    endloop
  endfacet
  facet normal 0 0 1
    outer loop
      vertex 19.3112 38.837 2
      vertex 29.1272 10.2728 2
      vertex 20 38.7 2
    endloop
  endfacet
  facet normal 0 0 1
    outer loop
      vertex 20.6888 38.837 2
      vertex 28.7272 39.2272 2
      vertex 28.337 39.8112 2
    endloop
  endfacet
  facet normal 0 0 1
    outer loop
      vertex 90.4 58.5 2
      vertex 94.9 58.5 2
      vertex 94.9 60.5 2
    endloop
  endfacet
  facet normal 0 0 1
    outer loop
      vertex 94.9 58.5 2
      vertex 92.2 11.5 2
      vertex 93.9404 0 2
    endloop
  endfacet
  facet normal 0 0 1
    outer loop
      vertex 94.9 58.5 2
      vertex 92.063 12.1888 2
      vertex 92.2 11.5 2
    endloop
  endfacet
  facet normal 0 0 1
    outer loop
      vertex 94.9 58.5 2
      vertex 90.4 36.5 2
      vertex 92.063 12.1888 2
    endloop
  endfacet
  facet normal 0 0 1
    outer loop
      vertex 92.063 12.1888 2
      vertex 90.4 36.5 2
      vertex 91.6728 12.7728 2
    endloop
  endfacet
  facet normal 0 0 1
    outer loop
      vertex 94.9 58.5 2
      vertex 90.4 58.5 2
      vertex 90.4 36.5 2
    endloop
  endfacet
  facet normal 0 0 1
    outer loop
      vertex 94.9 60.5 2
      vertex 79.4 58.5 2
      vertex 90.4 58.5 2
    endloop
  endfacet
  facet normal 0 0 1
    outer loop
      vertex 79.4 58.5 2
      vertex 75.4 58.5 2
      vertex 79.4 36.5 2
    endloop
  endfacet
  facet normal 0 0 1
    outer loop
      vertex 94.9 60.5 2
      vertex 75.4 58.5 2
      vertex 79.4 58.5 2
    endloop
  endfacet
  facet normal 0 0 1
    outer loop
      vertex 94.9 60.5 2
      vertex 64.4 58.5 2
      vertex 75.4 58.5 2
    endloop
  endfacet
  facet normal 0 0 1
    outer loop
      vertex 64.4 58.5 2
      vertex 60.4 58.5 2
      vertex 64.4 36.5 2
    endloop
  endfacet
  facet normal 0 0 1
    outer loop
      vertex 94.9 60.5 2
      vertex 60.4 58.5 2
      vertex 64.4 58.5 2
    endloop
  endfacet
  facet normal 0 0 1
    outer loop
      vertex 94.9 60.5 2
      vertex 49.4 58.5 2
      vertex 60.4 58.5 2
    endloop
  endfacet
  facet normal 0 0 1
    outer loop
      vertex 41.8 40.5 2
      vertex 49.4 58.5 2
      vertex 41.8 55.5 2
    endloop
  endfacet
  facet normal 0 0 1
    outer loop
      vertex 49.4 58.5 2
      vertex 41.663 56.1888 2
      vertex 41.8 55.5 2
    endloop
  endfacet
  facet normal 0 0 1
    outer loop
      vertex 49.4 58.5 2
      vertex 41.2728 56.7728 2
      vertex 41.663 56.1888 2
    endloop
  endfacet
  facet normal 0 0 1
    outer loop
      vertex 49.4 58.5 2
      vertex 40.6888 57.163 2
      vertex 41.2728 56.7728 2
    endloop
  endfacet
  facet normal 0 0 1
    outer loop
      vertex 49.4 58.5 2
      vertex 40 57.3 2
      vertex 40.6888 57.163 2
    endloop
  endfacet
  facet normal -0 0 1
    outer loop
      vertex 31.8 55.5 2
      vertex 38.2 40.5 2
      vertex 38.2 55.5 2
    endloop
  endfacet
  facet normal 0 0 1
    outer loop
      vertex 38.2 40.5 2
      vertex 32.063 9.68883 2
      vertex 32.2 9 2
    endloop
  endfacet
  facet normal 0 0 1
    outer loop
      vertex 31.8 40.5 2
      vertex 38.2 40.5 2
      vertex 31.8 55.5 2
    endloop
  endfacet
  facet normal 0 0 1
    outer loop
      vertex 38.337 56.1888 2
      vertex 31.8 55.5 2
      vertex 38.2 55.5 2
    endloop
  endfacet
  facet normal 0 0 1
    outer loop
      vertex 31.663 56.1888 2
      vertex 38.337 56.1888 2
      vertex 38.7272 56.7728 2
    endloop
  endfacet
  facet normal 0 0 1
    outer loop
      vertex 31.2728 56.7728 2
      vertex 38.7272 56.7728 2
      vertex 39.3112 57.163 2
    endloop
  endfacet
  facet normal 0 0 1
    outer loop
      vertex 38.337 56.1888 2
      vertex 31.663 56.1888 2
      vertex 31.8 55.5 2
    endloop
  endfacet
  facet normal 0 0 1
    outer loop
      vertex 30.6888 57.163 2
      vertex 39.3112 57.163 2
      vertex 40 57.3 2
    endloop
  endfacet
  facet normal 0 0 1
    outer loop
      vertex 38.7272 56.7728 2
      vertex 31.2728 56.7728 2
      vertex 31.663 56.1888 2
    endloop
  endfacet
  facet normal 0 0 1
    outer loop
      vertex 30 57.3 2
      vertex 40 57.3 2
      vertex 49.4 58.5 2
    endloop
  endfacet
  facet normal 0 0 1
    outer loop
      vertex 39.3112 57.163 2
      vertex 30.6888 57.163 2
      vertex 31.2728 56.7728 2
    endloop
  endfacet
  facet normal 0 0 1
    outer loop
      vertex 40 57.3 2
      vertex 30 57.3 2
      vertex 30.6888 57.163 2
    endloop
  endfacet
  facet normal 0 0 1
    outer loop
      vertex 28.2 55.5 2
      vertex 21.8 55.5 2
      vertex 28.2 40.5 2
    endloop
  endfacet
  facet normal 0 0 1
    outer loop
      vertex 28.337 56.1888 2
      vertex 21.8 55.5 2
      vertex 28.2 55.5 2
    endloop
  endfacet
  facet normal 0 0 1
    outer loop
      vertex 21.663 56.1888 2
      vertex 28.337 56.1888 2
      vertex 28.7272 56.7728 2
    endloop
  endfacet
  facet normal 0 0 1
    outer loop
      vertex 21.2728 56.7728 2
      vertex 28.7272 56.7728 2
      vertex 29.3112 57.163 2
    endloop
  endfacet
  facet normal 0 0 1
    outer loop
      vertex 28.337 56.1888 2
      vertex 21.663 56.1888 2
      vertex 21.8 55.5 2
    endloop
  endfacet
  facet normal 0 0 1
    outer loop
      vertex 20.6888 57.163 2
      vertex 29.3112 57.163 2
      vertex 30 57.3 2
    endloop
  endfacet
  facet normal 0 0 1
    outer loop
      vertex 28.7272 56.7728 2
      vertex 21.2728 56.7728 2
      vertex 21.663 56.1888 2
    endloop
  endfacet
  facet normal 0 0 1
    outer loop
      vertex 4.5 60.5 2
      vertex 30 57.3 2
      vertex 49.4 58.5 2
    endloop
  endfacet
  facet normal 0 0 1
    outer loop
      vertex 29.3112 57.163 2
      vertex 20.6888 57.163 2
      vertex 21.2728 56.7728 2
    endloop
  endfacet
  facet normal 0 0 1
    outer loop
      vertex 30 57.3 2
      vertex 20 57.3 2
      vertex 20.6888 57.163 2
    endloop
  endfacet
  facet normal -0 0 1
    outer loop
      vertex 4.5 60.5 2
      vertex 49.4 58.5 2
      vertex 94.9 60.5 2
    endloop
  endfacet
  facet normal 0 0 1
    outer loop
      vertex 18.2 55.5 2
      vertex 11.8 55.5 2
      vertex 18.2 40.5 2
    endloop
  endfacet
  facet normal 0 0 1
    outer loop
      vertex 18.337 56.1888 2
      vertex 11.8 55.5 2
      vertex 18.2 55.5 2
    endloop
  endfacet
  facet normal 0 0 1
    outer loop
      vertex 11.663 56.1888 2
      vertex 18.337 56.1888 2
      vertex 18.7272 56.7728 2
    endloop
  endfacet
  facet normal 0 0 1
    outer loop
      vertex 11.2728 56.7728 2
      vertex 18.7272 56.7728 2
      vertex 19.3112 57.163 2
    endloop
  endfacet
  facet normal 0 0 1
    outer loop
      vertex 18.337 56.1888 2
      vertex 11.663 56.1888 2
      vertex 11.8 55.5 2
    endloop
  endfacet
  facet normal 0 0 1
    outer loop
      vertex 4.5 60.5 2
      vertex 19.3112 57.163 2
      vertex 20 57.3 2
    endloop
  endfacet
  facet normal 0 0 1
    outer loop
      vertex 18.7272 56.7728 2
      vertex 11.2728 56.7728 2
      vertex 11.663 56.1888 2
    endloop
  endfacet
  facet normal 0 0 1
    outer loop
      vertex 19.3112 57.163 2
      vertex 10.6888 57.163 2
      vertex 11.2728 56.7728 2
    endloop
  endfacet
  facet normal 0 0 1
    outer loop
      vertex 30 57.3 2
      vertex 4.5 60.5 2
      vertex 20 57.3 2
    endloop
  endfacet
  facet normal 0 0 1
    outer loop
      vertex 19.3112 57.163 2
      vertex 4.5 60.5 2
      vertex 10.6888 57.163 2
    endloop
  endfacet
  facet normal 0 0 1
    outer loop
      vertex 4.5 60.5 2
      vertex 8.2 40.5 2
      vertex 8.2 55.5 2
    endloop
  endfacet
  facet normal 0 0 1
    outer loop
      vertex 10.6888 57.163 2
      vertex 4.5 60.5 2
      vertex 10 57.3 2
    endloop
  endfacet
  facet normal 0 0 1
    outer loop
      vertex 4.5 60.5 2
      vertex 9.31117 57.163 2
      vertex 10 57.3 2
    endloop
  endfacet
  facet normal 0 0 1
    outer loop
      vertex 4.5 60.5 2
      vertex 8.72721 56.7728 2
      vertex 9.31117 57.163 2
    endloop
  endfacet
  facet normal 0 0 1
    outer loop
      vertex 4.5 60.5 2
      vertex 8.33702 56.1888 2
      vertex 8.72721 56.7728 2
    endloop
  endfacet
  facet normal 0 0 1
    outer loop
      vertex 4.5 60.5 2
      vertex 8.2 55.5 2
      vertex 8.33702 56.1888 2
    endloop
  endfacet
  facet normal 0 0 1
    outer loop
      vertex 8.2 40.5 2
      vertex 4.5 60.5 2
      vertex 4.5 33.5 2
    endloop
  endfacet
  facet normal 0 0 1
    outer loop
      vertex 8.2 40.5 2
      vertex 4.5 33.5 2
      vertex 5.45955 0 2
    endloop
  endfacet
  facet normal 0 0 1
    outer loop
      vertex 0 15 2
      vertex 4.5 33.5 2
      vertex 0 33.5 2
    endloop
  endfacet
  facet normal 0 0 1
    outer loop
      vertex 4.5 33.5 2
      vertex 0 15 2
      vertex 5.45955 0 2
    endloop
  endfacet
  facet normal -0 0 1
    outer loop
      vertex 94.9 58.5 2
      vertex 99.4 15 2
      vertex 99.4 58.5 2
    endloop
  endfacet
  facet normal 0 0 1
    outer loop
      vertex 99.4 15 2
      vertex 94.9 58.5 2
      vertex 97.3479 9.36184 2
    endloop
  endfacet
  facet normal 0 0 1
    outer loop
      vertex 97.3479 9.36184 2
      vertex 94.9 58.5 2
      vertex 93.9404 0 2
    endloop
  endfacet
  facet normal -0 0 1
    outer loop
      vertex 92.2 9.5 2
      vertex 93.9404 0 2
      vertex 92.2 11.5 2
    endloop
  endfacet
  facet normal -0 0 1
    outer loop
      vertex 92.063 8.81117 2
      vertex 93.9404 0 2
      vertex 92.2 9.5 2
    endloop
  endfacet
  facet normal -0 0 1
    outer loop
      vertex 91.6728 8.22721 2
      vertex 93.9404 0 2
      vertex 92.063 8.81117 2
    endloop
  endfacet
  facet normal -0 0 1
    outer loop
      vertex 91.0888 7.83702 2
      vertex 93.9404 0 2
      vertex 91.6728 8.22721 2
    endloop
  endfacet
  facet normal -0 0 1
    outer loop
      vertex 90.4 7.7 2
      vertex 93.9404 0 2
      vertex 91.0888 7.83702 2
    endloop
  endfacet
  facet normal 0 0 1
    outer loop
      vertex 89.7112 7.83702 2
      vertex 93.9404 0 2
      vertex 90.4 7.7 2
    endloop
  endfacet
  facet normal 0 0 1
    outer loop
      vertex 89.1272 8.22721 2
      vertex 93.9404 0 2
      vertex 89.7112 7.83702 2
    endloop
  endfacet
  facet normal 0 0 1
    outer loop
      vertex 32.063 6.31117 2
      vertex 89.1272 8.22721 2
      vertex 88.737 8.81117 2
    endloop
  endfacet
  facet normal 0 0 1
    outer loop
      vertex 88.737 12.1888 2
      vertex 64.4 36.5 2
      vertex 88.6 11.5 2
    endloop
  endfacet
  facet normal 0 0 1
    outer loop
      vertex 75.4 36.5 2
      vertex 79.4 36.5 2
      vertex 75.4 58.5 2
    endloop
  endfacet
  facet normal 0 0 1
    outer loop
      vertex 88.6 11.5 2
      vertex 64.4 36.5 2
      vertex 88.6 9.5 2
    endloop
  endfacet
  facet normal -0 0 1
    outer loop
      vertex 60.4 36.5 2
      vertex 88.6 9.5 2
      vertex 64.4 36.5 2
    endloop
  endfacet
  facet normal 0 0 1
    outer loop
      vertex 32.2 7 2
      vertex 88.6 9.5 2
      vertex 60.4 36.5 2
    endloop
  endfacet
  facet normal 0 0 1
    outer loop
      vertex 60.4 36.5 2
      vertex 64.4 36.5 2
      vertex 60.4 58.5 2
    endloop
  endfacet
  facet normal 0 0 1
    outer loop
      vertex 88.6 9.5 2
      vertex 32.2 7 2
      vertex 88.737 8.81117 2
    endloop
  endfacet
  facet normal 0 0 1
    outer loop
      vertex 32.2 9 2
      vertex 60.4 36.5 2
      vertex 49.4 36.5 2
    endloop
  endfacet
  facet normal 0 0 1
    outer loop
      vertex 49.4 58.5 2
      vertex 41.8 40.5 2
      vertex 49.4 36.5 2
    endloop
  endfacet
  facet normal -0 0 1
    outer loop
      vertex 41.663 39.8112 2
      vertex 49.4 36.5 2
      vertex 41.8 40.5 2
    endloop
  endfacet
  facet normal -0 0 1
    outer loop
      vertex 41.2728 39.2272 2
      vertex 49.4 36.5 2
      vertex 41.663 39.8112 2
    endloop
  endfacet
  facet normal -0 0 1
    outer loop
      vertex 40.6888 38.837 2
      vertex 49.4 36.5 2
      vertex 41.2728 39.2272 2
    endloop
  endfacet
  facet normal -0 0 1
    outer loop
      vertex 40 38.7 2
      vertex 49.4 36.5 2
      vertex 40.6888 38.837 2
    endloop
  endfacet
  facet normal 0 0 1
    outer loop
      vertex 49.4 36.5 2
      vertex 40 38.7 2
      vertex 32.2 9 2
    endloop
  endfacet
  facet normal 0 0 1
    outer loop
      vertex 32.2 9 2
      vertex 40 38.7 2
      vertex 39.3112 38.837 2
    endloop
  endfacet
  facet normal 0 0 1
    outer loop
      vertex 32.2 9 2
      vertex 39.3112 38.837 2
      vertex 38.7272 39.2272 2
    endloop
  endfacet
  facet normal 0 0 1
    outer loop
      vertex 32.2 9 2
      vertex 38.337 39.8112 2
      vertex 38.2 40.5 2
    endloop
  endfacet
  facet normal 0 0 1
    outer loop
      vertex 32.2 9 2
      vertex 38.7272 39.2272 2
      vertex 38.337 39.8112 2
    endloop
  endfacet
  facet normal 0 0 1
    outer loop
      vertex 32.2 7 2
      vertex 60.4 36.5 2
      vertex 32.2 9 2
    endloop
  endfacet
  facet normal 0 0 1
    outer loop
      vertex 32.063 6.31117 2
      vertex 88.737 8.81117 2
      vertex 32.2 7 2
    endloop
  endfacet
  facet normal 0 0 1
    outer loop
      vertex 89.1272 8.22721 2
      vertex 32.063 6.31117 2
      vertex 93.9404 0 2
    endloop
  endfacet
  facet normal -0 0 1
    outer loop
      vertex 31.6728 5.72721 2
      vertex 93.9404 0 2
      vertex 32.063 6.31117 2
    endloop
  endfacet
  facet normal -0 0 1
    outer loop
      vertex 31.0888 5.33702 2
      vertex 93.9404 0 2
      vertex 31.6728 5.72721 2
    endloop
  endfacet
  facet normal -0 0 1
    outer loop
      vertex 30.4 5.2 2
      vertex 93.9404 0 2
      vertex 31.0888 5.33702 2
    endloop
  endfacet
  facet normal 0 0 1
    outer loop
      vertex 21.663 39.8112 2
      vertex 28.337 39.8112 2
      vertex 28.2 40.5 2
    endloop
  endfacet
  facet normal 0 0 1
    outer loop
      vertex 21.8 40.5 2
      vertex 28.2 40.5 2
      vertex 21.8 55.5 2
    endloop
  endfacet
  facet normal 0 0 1
    outer loop
      vertex 21.663 39.8112 2
      vertex 28.2 40.5 2
      vertex 21.8 40.5 2
    endloop
  endfacet
  facet normal 0 0 1
    outer loop
      vertex 28.337 39.8112 2
      vertex 21.663 39.8112 2
      vertex 21.2728 39.2272 2
    endloop
  endfacet
  facet normal 0 0 1
    outer loop
      vertex 28.337 39.8112 2
      vertex 21.2728 39.2272 2
      vertex 20.6888 38.837 2
    endloop
  endfacet
  facet normal -0 0 1
    outer loop
      vertex 10.6888 38.837 2
      vertex 29.1272 10.2728 2
      vertex 19.3112 38.837 2
    endloop
  endfacet
  facet normal -0 0 1
    outer loop
      vertex 10 38.7 2
      vertex 29.1272 10.2728 2
      vertex 10.6888 38.837 2
    endloop
  endfacet
  facet normal 0 0 1
    outer loop
      vertex 29.1272 10.2728 2
      vertex 10 38.7 2
      vertex 28.737 9.68883 2
    endloop
  endfacet
  facet normal 0 0 1
    outer loop
      vertex 5.45955 0 2
      vertex 28.737 9.68883 2
      vertex 10 38.7 2
    endloop
  endfacet
  facet normal 0 0 1
    outer loop
      vertex 10.6888 38.837 2
      vertex 19.3112 38.837 2
      vertex 18.7272 39.2272 2
    endloop
  endfacet
  facet normal 0 0 1
    outer loop
      vertex 11.2728 39.2272 2
      vertex 18.7272 39.2272 2
      vertex 18.337 39.8112 2
    endloop
  endfacet
  facet normal 0 0 1
    outer loop
      vertex 11.8 40.5 2
      vertex 18.2 40.5 2
      vertex 11.8 55.5 2
    endloop
  endfacet
  facet normal 0 0 1
    outer loop
      vertex 18.2 40.5 2
      vertex 11.8 40.5 2
      vertex 18.337 39.8112 2
    endloop
  endfacet
  facet normal 0 0 1
    outer loop
      vertex 11.663 39.8112 2
      vertex 18.337 39.8112 2
      vertex 11.8 40.5 2
    endloop
  endfacet
  facet normal 0 0 1
    outer loop
      vertex 11.2728 39.2272 2
      vertex 18.337 39.8112 2
      vertex 11.663 39.8112 2
    endloop
  endfacet
  facet normal 0 0 1
    outer loop
      vertex 18.7272 39.2272 2
      vertex 11.2728 39.2272 2
      vertex 10.6888 38.837 2
    endloop
  endfacet
  facet normal 0 0 1
    outer loop
      vertex 28.737 9.68883 2
      vertex 5.45955 0 2
      vertex 28.6 9 2
    endloop
  endfacet
  facet normal 0 0 1
    outer loop
      vertex 28.6 9 2
      vertex 5.45955 0 2
      vertex 28.6 7 2
    endloop
  endfacet
  facet normal 0 0 1
    outer loop
      vertex 5.45955 0 2
      vertex 10 38.7 2
      vertex 9.31117 38.837 2
    endloop
  endfacet
  facet normal 0 0 1
    outer loop
      vertex 5.45955 0 2
      vertex 9.31117 38.837 2
      vertex 8.72721 39.2272 2
    endloop
  endfacet
  facet normal 0 0 1
    outer loop
      vertex 5.45955 0 2
      vertex 8.72721 39.2272 2
      vertex 8.33702 39.8112 2
    endloop
  endfacet
  facet normal 0 0 1
    outer loop
      vertex 30.4 5.2 2
      vertex 5.45955 0 2
      vertex 93.9404 0 2
    endloop
  endfacet
  facet normal 0 0 1
    outer loop
      vertex 29.7112 5.33702 2
      vertex 5.45955 0 2
      vertex 30.4 5.2 2
    endloop
  endfacet
  facet normal 0 0 1
    outer loop
      vertex 29.1272 5.72721 2
      vertex 5.45955 0 2
      vertex 29.7112 5.33702 2
    endloop
  endfacet
  facet normal 0 0 1
    outer loop
      vertex 28.737 6.31117 2
      vertex 5.45955 0 2
      vertex 29.1272 5.72721 2
    endloop
  endfacet
  facet normal 0 0 1
    outer loop
      vertex 28.6 7 2
      vertex 5.45955 0 2
      vertex 28.737 6.31117 2
    endloop
  endfacet
  facet normal 0 0 1
    outer loop
      vertex 5.45955 0 2
      vertex 8.33702 39.8112 2
      vertex 8.2 40.5 2
    endloop
  endfacet
  facet normal 0 0 1
    outer loop
      vertex 91.6728 12.7728 2
      vertex 90.4 36.5 2
      vertex 91.0888 13.163 2
    endloop
  endfacet
  facet normal 0 0 1
    outer loop
      vertex 90.4 36.5 2
      vertex 90.4 13.3 2
      vertex 91.0888 13.163 2
    endloop
  endfacet
  facet normal 0 0 1
    outer loop
      vertex 90.4 36.5 2
      vertex 89.7112 13.163 2
      vertex 90.4 13.3 2
    endloop
  endfacet
  facet normal -0 0 1
    outer loop
      vertex 79.4 36.5 2
      vertex 89.7112 13.163 2
      vertex 90.4 36.5 2
    endloop
  endfacet
  facet normal 0 0 1
    outer loop
      vertex 89.7112 13.163 2
      vertex 79.4 36.5 2
      vertex 89.1272 12.7728 2
    endloop
  endfacet
  facet normal -0 0 1
    outer loop
      vertex 75.4 36.5 2
      vertex 89.1272 12.7728 2
      vertex 79.4 36.5 2
    endloop
  endfacet
  facet normal -0 0 1
    outer loop
      vertex 64.4 36.5 2
      vertex 88.737 12.1888 2
      vertex 75.4 36.5 2
    endloop
  endfacet
  facet normal 0 0 1
    outer loop
      vertex 89.1272 12.7728 2
      vertex 75.4 36.5 2
      vertex 88.737 12.1888 2
    endloop
  endfacet
  facet normal 1 0 0
    outer loop
      vertex 99.4 58.5 2
      vertex 99.4 66.5 23
      vertex 99.4 58.5 23
    endloop
  endfacet
  facet normal 1 0 0
    outer loop
      vertex 99.4 66.5 23
      vertex 99.4 58.5 2
      vertex 99.4 66.5 0
    endloop
  endfacet
  facet normal 1 0 0
    outer loop
      vertex 99.4 15 0
      vertex 99.4 58.5 2
      vertex 99.4 15 2
    endloop
  endfacet
  facet normal 1 0 0
    outer loop
      vertex 99.4 58.5 2
      vertex 99.4 15 0
      vertex 99.4 66.5 0
    endloop
  endfacet
  facet normal -0 0 -1
    outer loop
      vertex 40 38.7 0
      vertex 31.0888 10.663 0
      vertex 39.3112 38.837 0
    endloop
  endfacet
  facet normal 0 0 -1
    outer loop
      vertex 39.3112 38.837 0
      vertex 31.663 39.8112 0
      vertex 31.8 40.5 0
    endloop
  endfacet
  facet normal 0 0 -1
    outer loop
      vertex 39.3112 38.837 0
      vertex 31.2728 39.2272 0
      vertex 31.663 39.8112 0
    endloop
  endfacet
  facet normal 0 0 -1
    outer loop
      vertex 30.6888 38.837 0
      vertex 39.3112 38.837 0
      vertex 31.0888 10.663 0
    endloop
  endfacet
  facet normal 0 0 -1
    outer loop
      vertex 39.3112 38.837 0
      vertex 30.6888 38.837 0
      vertex 31.2728 39.2272 0
    endloop
  endfacet
  facet normal 0 0 -1
    outer loop
      vertex 30.4 10.8 0
      vertex 30.6888 38.837 0
      vertex 31.0888 10.663 0
    endloop
  endfacet
  facet normal 0 0 -1
    outer loop
      vertex 30.4 10.8 0
      vertex 30 38.7 0
      vertex 30.6888 38.837 0
    endloop
  endfacet
  facet normal 0 0 -1
    outer loop
      vertex 29.7112 10.663 0
      vertex 30 38.7 0
      vertex 30.4 10.8 0
    endloop
  endfacet
  facet normal 0 0 -1
    outer loop
      vertex 29.7112 10.663 0
      vertex 29.3112 38.837 0
      vertex 30 38.7 0
    endloop
  endfacet
  facet normal 0 0 -1
    outer loop
      vertex 20 38.7 0
      vertex 29.7112 10.663 0
      vertex 29.1272 10.2728 0
    endloop
  endfacet
  facet normal 0 0 -1
    outer loop
      vertex 0 15 0
      vertex 29.1272 10.2728 0
      vertex 28.737 9.68883 0
    endloop
  endfacet
  facet normal 0 0 -1
    outer loop
      vertex 29.7112 10.663 0
      vertex 20.6888 38.837 0
      vertex 29.3112 38.837 0
    endloop
  endfacet
  facet normal 0 0 -1
    outer loop
      vertex 0 15 0
      vertex 28.737 9.68883 0
      vertex 28.6 9 0
    endloop
  endfacet
  facet normal 0 0 -1
    outer loop
      vertex 29.3112 38.837 0
      vertex 20.6888 38.837 0
      vertex 28.7272 39.2272 0
    endloop
  endfacet
  facet normal 0 0 -1
    outer loop
      vertex 89.7112 13.163 0
      vertex 90.4 36.5 0
      vertex 90.4 13.3 0
    endloop
  endfacet
  facet normal 0 0 -1
    outer loop
      vertex 79.4 36.5 0
      vertex 89.7112 13.163 0
      vertex 89.1272 12.7728 0
    endloop
  endfacet
  facet normal 0 0 -1
    outer loop
      vertex 75.4 36.5 0
      vertex 89.1272 12.7728 0
      vertex 88.737 12.1888 0
    endloop
  endfacet
  facet normal 0 0 -1
    outer loop
      vertex 64.4 36.5 0
      vertex 88.737 12.1888 0
      vertex 88.6 11.5 0
    endloop
  endfacet
  facet normal 0 0 -1
    outer loop
      vertex 89.7112 13.163 0
      vertex 79.4 36.5 0
      vertex 90.4 36.5 0
    endloop
  endfacet
  facet normal 0 0 -1
    outer loop
      vertex 95.9798 5.60307 0
      vertex 92.063 8.81117 0
      vertex 92.2 9.5 0
    endloop
  endfacet
  facet normal 0 0 -1
    outer loop
      vertex 95.9798 5.60307 0
      vertex 91.6728 8.22721 0
      vertex 92.063 8.81117 0
    endloop
  endfacet
  facet normal 0 0 -1
    outer loop
      vertex 95.9798 5.60307 0
      vertex 91.0888 7.83702 0
      vertex 91.6728 8.22721 0
    endloop
  endfacet
  facet normal 0 0 -1
    outer loop
      vertex 93.9404 0 0
      vertex 90.4 7.7 0
      vertex 91.0888 7.83702 0
    endloop
  endfacet
  facet normal 0 0 -1
    outer loop
      vertex 93.9404 0 0
      vertex 89.7112 7.83702 0
      vertex 90.4 7.7 0
    endloop
  endfacet
  facet normal 0 0 -1
    outer loop
      vertex 93.9404 0 0
      vertex 89.1272 8.22721 0
      vertex 89.7112 7.83702 0
    endloop
  endfacet
  facet normal 0 0 -1
    outer loop
      vertex 32.063 6.31117 0
      vertex 89.1272 8.22721 0
      vertex 93.9404 0 0
    endloop
  endfacet
  facet normal 0 0 -1
    outer loop
      vertex 64.4 36.5 0
      vertex 88.6 11.5 0
      vertex 88.6 9.5 0
    endloop
  endfacet
  facet normal 0 0 -1
    outer loop
      vertex 32.2 7 0
      vertex 88.6 9.5 0
      vertex 88.737 8.81117 0
    endloop
  endfacet
  facet normal 0 0 -1
    outer loop
      vertex 79.4 36.5 0
      vertex 75.4 36.5 0
      vertex 79.4 58.5 0
    endloop
  endfacet
  facet normal 0 0 -1
    outer loop
      vertex 89.1272 12.7728 0
      vertex 75.4 36.5 0
      vertex 79.4 36.5 0
    endloop
  endfacet
  facet normal 0 0 -1
    outer loop
      vertex 88.737 12.1888 0
      vertex 64.4 36.5 0
      vertex 75.4 36.5 0
    endloop
  endfacet
  facet normal -0 0 -1
    outer loop
      vertex 89.1272 8.22721 0
      vertex 32.063 6.31117 0
      vertex 88.737 8.81117 0
    endloop
  endfacet
  facet normal 0 0 -1
    outer loop
      vertex 64.4 36.5 0
      vertex 60.4 36.5 0
      vertex 64.4 58.5 0
    endloop
  endfacet
  facet normal -0 0 -1
    outer loop
      vertex 88.6 9.5 0
      vertex 32.2 7 0
      vertex 60.4 36.5 0
    endloop
  endfacet
  facet normal 0 0 -1
    outer loop
      vertex 88.6 9.5 0
      vertex 60.4 36.5 0
      vertex 64.4 36.5 0
    endloop
  endfacet
  facet normal 0 0 -1
    outer loop
      vertex 49.4 36.5 0
      vertex 41.8 40.5 0
      vertex 49.4 58.5 0
    endloop
  endfacet
  facet normal -0 0 -1
    outer loop
      vertex 60.4 36.5 0
      vertex 32.2 9 0
      vertex 49.4 36.5 0
    endloop
  endfacet
  facet normal 0 0 -1
    outer loop
      vertex 49.4 36.5 0
      vertex 41.663 39.8112 0
      vertex 41.8 40.5 0
    endloop
  endfacet
  facet normal 0 0 -1
    outer loop
      vertex 49.4 36.5 0
      vertex 41.2728 39.2272 0
      vertex 41.663 39.8112 0
    endloop
  endfacet
  facet normal 0 0 -1
    outer loop
      vertex 31.6728 10.2728 0
      vertex 49.4 36.5 0
      vertex 32.063 9.68883 0
    endloop
  endfacet
  facet normal 0 0 -1
    outer loop
      vertex 49.4 36.5 0
      vertex 40.6888 38.837 0
      vertex 41.2728 39.2272 0
    endloop
  endfacet
  facet normal 0 0 -1
    outer loop
      vertex 49.4 36.5 0
      vertex 40 38.7 0
      vertex 40.6888 38.837 0
    endloop
  endfacet
  facet normal -0 0 -1
    outer loop
      vertex 49.4 36.5 0
      vertex 31.6728 10.2728 0
      vertex 40 38.7 0
    endloop
  endfacet
  facet normal 0 0 -1
    outer loop
      vertex 39.3112 38.837 0
      vertex 31.8 40.5 0
      vertex 38.7272 39.2272 0
    endloop
  endfacet
  facet normal 0 0 -1
    outer loop
      vertex 31.0888 10.663 0
      vertex 40 38.7 0
      vertex 31.6728 10.2728 0
    endloop
  endfacet
  facet normal 0 0 -1
    outer loop
      vertex 49.4 36.5 0
      vertex 32.2 9 0
      vertex 32.063 9.68883 0
    endloop
  endfacet
  facet normal 0 0 -1
    outer loop
      vertex 60.4 36.5 0
      vertex 32.2 7 0
      vertex 32.2 9 0
    endloop
  endfacet
  facet normal 0 0 -1
    outer loop
      vertex 88.737 8.81117 0
      vertex 32.063 6.31117 0
      vertex 32.2 7 0
    endloop
  endfacet
  facet normal 0 0 -1
    outer loop
      vertex 93.9404 0 0
      vertex 31.6728 5.72721 0
      vertex 32.063 6.31117 0
    endloop
  endfacet
  facet normal 0 0 -1
    outer loop
      vertex 93.9404 0 0
      vertex 31.0888 5.33702 0
      vertex 31.6728 5.72721 0
    endloop
  endfacet
  facet normal 0 0 -1
    outer loop
      vertex 93.9404 0 0
      vertex 30.4 5.2 0
      vertex 31.0888 5.33702 0
    endloop
  endfacet
  facet normal 0 0 -1
    outer loop
      vertex 5.45955 0 0
      vertex 28.6 9 0
      vertex 28.6 7 0
    endloop
  endfacet
  facet normal 0 -0 -1
    outer loop
      vertex 21.2728 39.2272 0
      vertex 28.7272 39.2272 0
      vertex 20.6888 38.837 0
    endloop
  endfacet
  facet normal 0 0 -1
    outer loop
      vertex 28.2 40.5 0
      vertex 21.8 40.5 0
      vertex 28.2 55.5 0
    endloop
  endfacet
  facet normal 0 0 -1
    outer loop
      vertex 28.7272 39.2272 0
      vertex 21.2728 39.2272 0
      vertex 28.337 39.8112 0
    endloop
  endfacet
  facet normal 0 0 -1
    outer loop
      vertex 5.45955 0 0
      vertex 28.6 7 0
      vertex 28.737 6.31117 0
    endloop
  endfacet
  facet normal -0 0 -1
    outer loop
      vertex 28.2 40.5 0
      vertex 21.663 39.8112 0
      vertex 21.8 40.5 0
    endloop
  endfacet
  facet normal 0 0 -1
    outer loop
      vertex 28.337 39.8112 0
      vertex 21.663 39.8112 0
      vertex 28.2 40.5 0
    endloop
  endfacet
  facet normal 0 -0 -1
    outer loop
      vertex 21.663 39.8112 0
      vertex 28.337 39.8112 0
      vertex 21.2728 39.2272 0
    endloop
  endfacet
  facet normal 0 0 -1
    outer loop
      vertex 29.7112 10.663 0
      vertex 20 38.7 0
      vertex 20.6888 38.837 0
    endloop
  endfacet
  facet normal 0 -0 -1
    outer loop
      vertex 19.3112 38.837 0
      vertex 29.1272 10.2728 0
      vertex 0 15 0
    endloop
  endfacet
  facet normal 0 0 -1
    outer loop
      vertex 29.1272 10.2728 0
      vertex 19.3112 38.837 0
      vertex 20 38.7 0
    endloop
  endfacet
  facet normal 0 -0 -1
    outer loop
      vertex 10.6888 38.837 0
      vertex 19.3112 38.837 0
      vertex 0 15 0
    endloop
  endfacet
  facet normal 0 0 -1
    outer loop
      vertex 18.2 40.5 0
      vertex 11.8 40.5 0
      vertex 18.2 55.5 0
    endloop
  endfacet
  facet normal 0 0 -1
    outer loop
      vertex 18.337 39.8112 0
      vertex 11.8 40.5 0
      vertex 18.2 40.5 0
    endloop
  endfacet
  facet normal 0 0 -1
    outer loop
      vertex 19.3112 38.837 0
      vertex 10.6888 38.837 0
      vertex 18.7272 39.2272 0
    endloop
  endfacet
  facet normal 0 0 -1
    outer loop
      vertex 18.337 39.8112 0
      vertex 11.663 39.8112 0
      vertex 11.8 40.5 0
    endloop
  endfacet
  facet normal -0 0 -1
    outer loop
      vertex 18.337 39.8112 0
      vertex 11.2728 39.2272 0
      vertex 11.663 39.8112 0
    endloop
  endfacet
  facet normal 0 0 -1
    outer loop
      vertex 18.7272 39.2272 0
      vertex 11.2728 39.2272 0
      vertex 18.337 39.8112 0
    endloop
  endfacet
  facet normal 0 -0 -1
    outer loop
      vertex 11.2728 39.2272 0
      vertex 18.7272 39.2272 0
      vertex 10.6888 38.837 0
    endloop
  endfacet
  facet normal 0 0 -1
    outer loop
      vertex 10.6888 38.837 0
      vertex 0 15 0
      vertex 10 38.7 0
    endloop
  endfacet
  facet normal -0 0 -1
    outer loop
      vertex 10 38.7 0
      vertex 0 15 0
      vertex 9.31117 38.837 0
    endloop
  endfacet
  facet normal -0 0 -1
    outer loop
      vertex 9.31117 38.837 0
      vertex 0 15 0
      vertex 8.72721 39.2272 0
    endloop
  endfacet
  facet normal -0 0 -1
    outer loop
      vertex 8.33702 39.8112 0
      vertex 0 15 0
      vertex 8.2 40.5 0
    endloop
  endfacet
  facet normal -0 0 -1
    outer loop
      vertex 8.72721 39.2272 0
      vertex 0 15 0
      vertex 8.33702 39.8112 0
    endloop
  endfacet
  facet normal -0 0 -1
    outer loop
      vertex 28.6 9 0
      vertex 5.45955 0 0
      vertex 0 15 0
    endloop
  endfacet
  facet normal -0 0 -1
    outer loop
      vertex 29.1272 5.72721 0
      vertex 5.45955 0 0
      vertex 28.737 6.31117 0
    endloop
  endfacet
  facet normal -0 0 -1
    outer loop
      vertex 29.7112 5.33702 0
      vertex 5.45955 0 0
      vertex 29.1272 5.72721 0
    endloop
  endfacet
  facet normal -0 0 -1
    outer loop
      vertex 30.4 5.2 0
      vertex 5.45955 0 0
      vertex 29.7112 5.33702 0
    endloop
  endfacet
  facet normal 0 0 -1
    outer loop
      vertex 5.45955 0 0
      vertex 30.4 5.2 0
      vertex 93.9404 0 0
    endloop
  endfacet
  facet normal 0 0 -1
    outer loop
      vertex 92.2 11.5 0
      vertex 99.4 15 0
      vertex 95.9798 5.60307 0
    endloop
  endfacet
  facet normal 0 0 -1
    outer loop
      vertex 91.0888 7.83702 0
      vertex 95.9798 5.60307 0
      vertex 93.9404 0 0
    endloop
  endfacet
  facet normal 0 0 -1
    outer loop
      vertex 95.9798 5.60307 0
      vertex 92.2 9.5 0
      vertex 92.2 11.5 0
    endloop
  endfacet
  facet normal 0 0 -1
    outer loop
      vertex 99.4 15 0
      vertex 92.2 11.5 0
      vertex 92.063 12.1888 0
    endloop
  endfacet
  facet normal 0 0 -1
    outer loop
      vertex 91.6728 12.7728 0
      vertex 99.4 15 0
      vertex 92.063 12.1888 0
    endloop
  endfacet
  facet normal 0 0 -1
    outer loop
      vertex 91.0888 13.163 0
      vertex 99.4 15 0
      vertex 91.6728 12.7728 0
    endloop
  endfacet
  facet normal 0 0 -1
    outer loop
      vertex 90.4 13.3 0
      vertex 99.4 15 0
      vertex 91.0888 13.163 0
    endloop
  endfacet
  facet normal -0 0 -1
    outer loop
      vertex 99.4 15 0
      vertex 90.4 13.3 0
      vertex 90.4 36.5 0
    endloop
  endfacet
  facet normal 0 0 -1
    outer loop
      vertex 99.4 15 0
      vertex 90.4 36.5 0
      vertex 99.4 66.5 0
    endloop
  endfacet
  facet normal 0 0 -1
    outer loop
      vertex 90.4 58.5 0
      vertex 99.4 66.5 0
      vertex 90.4 36.5 0
    endloop
  endfacet
  facet normal 0 0 -1
    outer loop
      vertex 79.4 58.5 0
      vertex 99.4 66.5 0
      vertex 90.4 58.5 0
    endloop
  endfacet
  facet normal 0 0 -1
    outer loop
      vertex 75.4 58.5 0
      vertex 79.4 58.5 0
      vertex 75.4 36.5 0
    endloop
  endfacet
  facet normal 0 0 -1
    outer loop
      vertex 75.4 58.5 0
      vertex 99.4 66.5 0
      vertex 79.4 58.5 0
    endloop
  endfacet
  facet normal 0 0 -1
    outer loop
      vertex 64.4 58.5 0
      vertex 99.4 66.5 0
      vertex 75.4 58.5 0
    endloop
  endfacet
  facet normal 0 0 -1
    outer loop
      vertex 60.4 58.5 0
      vertex 64.4 58.5 0
      vertex 60.4 36.5 0
    endloop
  endfacet
  facet normal 0 0 -1
    outer loop
      vertex 60.4 58.5 0
      vertex 99.4 66.5 0
      vertex 64.4 58.5 0
    endloop
  endfacet
  facet normal 0 0 -1
    outer loop
      vertex 49.4 58.5 0
      vertex 99.4 66.5 0
      vertex 60.4 58.5 0
    endloop
  endfacet
  facet normal 0 0 -1
    outer loop
      vertex 41.8 55.5 0
      vertex 49.4 58.5 0
      vertex 41.8 40.5 0
    endloop
  endfacet
  facet normal 0 0 -1
    outer loop
      vertex 41.663 56.1888 0
      vertex 49.4 58.5 0
      vertex 41.8 55.5 0
    endloop
  endfacet
  facet normal 0 0 -1
    outer loop
      vertex 41.2728 56.7728 0
      vertex 49.4 58.5 0
      vertex 41.663 56.1888 0
    endloop
  endfacet
  facet normal 0 0 -1
    outer loop
      vertex 40.6888 57.163 0
      vertex 49.4 58.5 0
      vertex 41.2728 56.7728 0
    endloop
  endfacet
  facet normal 0 0 -1
    outer loop
      vertex 40 57.3 0
      vertex 49.4 58.5 0
      vertex 40.6888 57.163 0
    endloop
  endfacet
  facet normal 0 0 -1
    outer loop
      vertex 0 66.5 0
      vertex 49.4 58.5 0
      vertex 40 57.3 0
    endloop
  endfacet
  facet normal 0 0 -1
    outer loop
      vertex 38.7272 39.2272 0
      vertex 31.8 40.5 0
      vertex 38.337 39.8112 0
    endloop
  endfacet
  facet normal 0 0 -1
    outer loop
      vertex 38.337 39.8112 0
      vertex 31.8 40.5 0
      vertex 38.2 40.5 0
    endloop
  endfacet
  facet normal 0 0 -1
    outer loop
      vertex 38.2 40.5 0
      vertex 31.8 40.5 0
      vertex 38.2 55.5 0
    endloop
  endfacet
  facet normal 0 0 -1
    outer loop
      vertex 31.8 55.5 0
      vertex 38.2 55.5 0
      vertex 31.8 40.5 0
    endloop
  endfacet
  facet normal 0 0 -1
    outer loop
      vertex 38.2 55.5 0
      vertex 31.8 55.5 0
      vertex 38.337 56.1888 0
    endloop
  endfacet
  facet normal 0 0 -1
    outer loop
      vertex 31.663 56.1888 0
      vertex 38.337 56.1888 0
      vertex 31.8 55.5 0
    endloop
  endfacet
  facet normal 0 0 -1
    outer loop
      vertex 38.337 56.1888 0
      vertex 31.663 56.1888 0
      vertex 38.7272 56.7728 0
    endloop
  endfacet
  facet normal 0 0 -1
    outer loop
      vertex 31.2728 56.7728 0
      vertex 38.7272 56.7728 0
      vertex 31.663 56.1888 0
    endloop
  endfacet
  facet normal 0 0 -1
    outer loop
      vertex 38.7272 56.7728 0
      vertex 31.2728 56.7728 0
      vertex 39.3112 57.163 0
    endloop
  endfacet
  facet normal 0 0 -1
    outer loop
      vertex 30.6888 57.163 0
      vertex 39.3112 57.163 0
      vertex 31.2728 56.7728 0
    endloop
  endfacet
  facet normal 0 0 -1
    outer loop
      vertex 39.3112 57.163 0
      vertex 30.6888 57.163 0
      vertex 40 57.3 0
    endloop
  endfacet
  facet normal 0 0 -1
    outer loop
      vertex 30 57.3 0
      vertex 40 57.3 0
      vertex 30.6888 57.163 0
    endloop
  endfacet
  facet normal 0 0 -1
    outer loop
      vertex 0 66.5 0
      vertex 40 57.3 0
      vertex 30 57.3 0
    endloop
  endfacet
  facet normal 0 0 -1
    outer loop
      vertex 21.8 55.5 0
      vertex 28.2 55.5 0
      vertex 21.8 40.5 0
    endloop
  endfacet
  facet normal 0 0 -1
    outer loop
      vertex 28.2 55.5 0
      vertex 21.8 55.5 0
      vertex 28.337 56.1888 0
    endloop
  endfacet
  facet normal 0 0 -1
    outer loop
      vertex 21.663 56.1888 0
      vertex 28.337 56.1888 0
      vertex 21.8 55.5 0
    endloop
  endfacet
  facet normal 0 0 -1
    outer loop
      vertex 28.337 56.1888 0
      vertex 21.663 56.1888 0
      vertex 28.7272 56.7728 0
    endloop
  endfacet
  facet normal 0 0 -1
    outer loop
      vertex 21.2728 56.7728 0
      vertex 28.7272 56.7728 0
      vertex 21.663 56.1888 0
    endloop
  endfacet
  facet normal 0 0 -1
    outer loop
      vertex 28.7272 56.7728 0
      vertex 21.2728 56.7728 0
      vertex 29.3112 57.163 0
    endloop
  endfacet
  facet normal 0 0 -1
    outer loop
      vertex 20.6888 57.163 0
      vertex 29.3112 57.163 0
      vertex 21.2728 56.7728 0
    endloop
  endfacet
  facet normal 0 0 -1
    outer loop
      vertex 29.3112 57.163 0
      vertex 20.6888 57.163 0
      vertex 30 57.3 0
    endloop
  endfacet
  facet normal 0 0 -1
    outer loop
      vertex 20 57.3 0
      vertex 30 57.3 0
      vertex 20.6888 57.163 0
    endloop
  endfacet
  facet normal 0 0 -1
    outer loop
      vertex 30 57.3 0
      vertex 20 57.3 0
      vertex 0 66.5 0
    endloop
  endfacet
  facet normal 0 0 -1
    outer loop
      vertex 11.8 55.5 0
      vertex 18.2 55.5 0
      vertex 11.8 40.5 0
    endloop
  endfacet
  facet normal 0 0 -1
    outer loop
      vertex 18.2 55.5 0
      vertex 11.8 55.5 0
      vertex 18.337 56.1888 0
    endloop
  endfacet
  facet normal 0 0 -1
    outer loop
      vertex 11.663 56.1888 0
      vertex 18.337 56.1888 0
      vertex 11.8 55.5 0
    endloop
  endfacet
  facet normal 0 0 -1
    outer loop
      vertex 18.337 56.1888 0
      vertex 11.663 56.1888 0
      vertex 18.7272 56.7728 0
    endloop
  endfacet
  facet normal 0 0 -1
    outer loop
      vertex 11.2728 56.7728 0
      vertex 18.7272 56.7728 0
      vertex 11.663 56.1888 0
    endloop
  endfacet
  facet normal 0 0 -1
    outer loop
      vertex 18.7272 56.7728 0
      vertex 11.2728 56.7728 0
      vertex 19.3112 57.163 0
    endloop
  endfacet
  facet normal 0 0 -1
    outer loop
      vertex 10.6888 57.163 0
      vertex 19.3112 57.163 0
      vertex 11.2728 56.7728 0
    endloop
  endfacet
  facet normal 0 0 -1
    outer loop
      vertex 0 66.5 0
      vertex 19.3112 57.163 0
      vertex 10.6888 57.163 0
    endloop
  endfacet
  facet normal 0 0 -1
    outer loop
      vertex 19.3112 57.163 0
      vertex 0 66.5 0
      vertex 20 57.3 0
    endloop
  endfacet
  facet normal 0 0 -1
    outer loop
      vertex 0 66.5 0
      vertex 10.6888 57.163 0
      vertex 10 57.3 0
    endloop
  endfacet
  facet normal 0 0 -1
    outer loop
      vertex 0 66.5 0
      vertex 8.2 40.5 0
      vertex 0 15 0
    endloop
  endfacet
  facet normal 0 0 -1
    outer loop
      vertex 8.2 40.5 0
      vertex 0 66.5 0
      vertex 8.2 55.5 0
    endloop
  endfacet
  facet normal 0 0 -1
    outer loop
      vertex 49.4 58.5 0
      vertex 0 66.5 0
      vertex 99.4 66.5 0
    endloop
  endfacet
  facet normal 0 0 -1
    outer loop
      vertex 9.31117 57.163 0
      vertex 0 66.5 0
      vertex 10 57.3 0
    endloop
  endfacet
  facet normal 0 0 -1
    outer loop
      vertex 8.72721 56.7728 0
      vertex 0 66.5 0
      vertex 9.31117 57.163 0
    endloop
  endfacet
  facet normal 0 0 -1
    outer loop
      vertex 8.33702 56.1888 0
      vertex 0 66.5 0
      vertex 8.72721 56.7728 0
    endloop
  endfacet
  facet normal 0 0 -1
    outer loop
      vertex 8.2 55.5 0
      vertex 0 66.5 0
      vertex 8.33702 56.1888 0
    endloop
  endfacet
  facet normal 0 -1 0
    outer loop
      vertex 5.45955 0 0
      vertex 93.9404 0 2
      vertex 5.45955 0 2
    endloop
  endfacet
  facet normal 0 -1 -0
    outer loop
      vertex 93.9404 0 2
      vertex 5.45955 0 0
      vertex 93.9404 0 0
    endloop
  endfacet
  facet normal 0 0 1
    outer loop
      vertex 99.4 66.5 23
      vertex 94.9 60.5 23
      vertex 99.4 58.5 23
    endloop
  endfacet
  facet normal 0 0 1
    outer loop
      vertex 99.4 66.5 23
      vertex 92.5 63.5 23
      vertex 94.9 60.5 23
    endloop
  endfacet
  facet normal -0 0 1
    outer loop
      vertex 92.4 66.5 23
      vertex 92.5 63.5 23
      vertex 99.4 66.5 23
    endloop
  endfacet
  facet normal 0 0 1
    outer loop
      vertex 92.5 63.5 23
      vertex 92.4 66.5 23
      vertex 92.4 63.5 23
    endloop
  endfacet
  facet normal 0 0 1
    outer loop
      vertex 99.4 58.5 23
      vertex 94.9 60.5 23
      vertex 94.9 58.5 23
    endloop
  endfacet
  facet normal 0 0 1
    outer loop
      vertex 94.9 60.5 23
      vertex 92.5 63.5 23
      vertex 92.5 60.5 23
    endloop
  endfacet
  facet normal 0 0 1
    outer loop
      vertex 45 66.5 23
      vertex 6.9 63.5 23
      vertex 45 63.5 23
    endloop
  endfacet
  facet normal 0 0 1
    outer loop
      vertex 6.9 63.5 23
      vertex 4.5 60.5 23
      vertex 6.9 60.5 23
    endloop
  endfacet
  facet normal -0 0 1
    outer loop
      vertex 0 66.5 23
      vertex 6.9 63.5 23
      vertex 45 66.5 23
    endloop
  endfacet
  facet normal 0 0 1
    outer loop
      vertex 0 66.5 23
      vertex 4.5 60.5 23
      vertex 6.9 63.5 23
    endloop
  endfacet
  facet normal 0 0 1
    outer loop
      vertex 0 33.5 23
      vertex 4.5 60.5 23
      vertex 0 66.5 23
    endloop
  endfacet
  facet normal 0 0 1
    outer loop
      vertex 4.5 60.5 23
      vertex 0 33.5 23
      vertex 4.5 33.5 23
    endloop
  endfacet
  facet normal 0 1 0
    outer loop
      vertex 99.4 66.5 23
      vertex 92.4 66.5 15.4208
      vertex 92.4 66.5 23
    endloop
  endfacet
  facet normal 0 1 -0
    outer loop
      vertex 99.4 66.5 0
      vertex 92.4 66.5 15.4208
      vertex 99.4 66.5 23
    endloop
  endfacet
  facet normal 0 1 0
    outer loop
      vertex 92.4 66.5 15.4208
      vertex 99.4 66.5 0
      vertex 91.797 66.5 13.4329
    endloop
  endfacet
  facet normal 0 1 0
    outer loop
      vertex 87.3442 66.5 6.5
      vertex 99.4 66.5 0
      vertex 50.0558 66.5 6.5
    endloop
  endfacet
  facet normal 0 1 0
    outer loop
      vertex 89.4867 66.5 9.11074
      vertex 99.4 66.5 0
      vertex 87.3442 66.5 6.5
    endloop
  endfacet
  facet normal 0 1 0
    outer loop
      vertex 91.797 66.5 13.4329
      vertex 99.4 66.5 0
      vertex 89.4867 66.5 9.11074
    endloop
  endfacet
  facet normal 0 1 -0
    outer loop
      vertex 45 66.5 15.4208
      vertex 0 66.5 23
      vertex 45 66.5 23
    endloop
  endfacet
  facet normal 0 1 0
    outer loop
      vertex 0 66.5 0
      vertex 45 66.5 15.4208
      vertex 45.603 66.5 13.4329
    endloop
  endfacet
  facet normal 0 1 0
    outer loop
      vertex 0 66.5 0
      vertex 45.603 66.5 13.4329
      vertex 47.9133 66.5 9.11074
    endloop
  endfacet
  facet normal 0 1 0
    outer loop
      vertex 0 66.5 0
      vertex 47.9133 66.5 9.11074
      vertex 50.0558 66.5 6.5
    endloop
  endfacet
  facet normal 0 1 0
    outer loop
      vertex 45 66.5 15.4208
      vertex 0 66.5 0
      vertex 0 66.5 23
    endloop
  endfacet
  facet normal 0 1 0
    outer loop
      vertex 0 66.5 0
      vertex 50.0558 66.5 6.5
      vertex 99.4 66.5 0
    endloop
  endfacet
  facet normal 0 -1 0
    outer loop
      vertex 6.9 63.5 23
      vertex 45 63.5 15.4208
      vertex 45 63.5 23
    endloop
  endfacet
  facet normal 0 -1 0
    outer loop
      vertex 6.9 63.5 4
      vertex 45 63.5 15.4208
      vertex 6.9 63.5 23
    endloop
  endfacet
  facet normal 0 -1 -0
    outer loop
      vertex 45 63.5 15.4208
      vertex 6.9 63.5 4
      vertex 45.603 63.5 13.4329
    endloop
  endfacet
  facet normal 0 -1 -0
    outer loop
      vertex 45.603 63.5 13.4329
      vertex 6.9 63.5 4
      vertex 47.9133 63.5 9.11074
    endloop
  endfacet
  facet normal 0 -1 0
    outer loop
      vertex 92.5 63.5 4
      vertex 50.0558 63.5 6.5
      vertex 6.9 63.5 4
    endloop
  endfacet
  facet normal 0 -1 -0
    outer loop
      vertex 47.9133 63.5 9.11074
      vertex 6.9 63.5 4
      vertex 50.0558 63.5 6.5
    endloop
  endfacet
  facet normal 0 -1 0
    outer loop
      vertex 92.4 63.5 15.4208
      vertex 92.5 63.5 23
      vertex 92.4 63.5 23
    endloop
  endfacet
  facet normal 0 -1 0
    outer loop
      vertex 92.4 63.5 15.4208
      vertex 92.5 63.5 4
      vertex 92.5 63.5 23
    endloop
  endfacet
  facet normal 0 -1 0
    outer loop
      vertex 91.797 63.5 13.4329
      vertex 92.5 63.5 4
      vertex 92.4 63.5 15.4208
    endloop
  endfacet
  facet normal 0 -1 0
    outer loop
      vertex 89.4867 63.5 9.11074
      vertex 92.5 63.5 4
      vertex 91.797 63.5 13.4329
    endloop
  endfacet
  facet normal 0 -1 0
    outer loop
      vertex 87.3442 63.5 6.5
      vertex 92.5 63.5 4
      vertex 89.4867 63.5 9.11074
    endloop
  endfacet
  facet normal 0 -1 0
    outer loop
      vertex 50.0558 63.5 6.5
      vertex 92.5 63.5 4
      vertex 87.3442 63.5 6.5
    endloop
  endfacet
  facet normal 1 -0 0
    outer loop
      vertex 4.5 33.5 23
      vertex 4.5 60.5 2
      vertex 4.5 60.5 23
    endloop
  endfacet
  facet normal 1 0 0
    outer loop
      vertex 4.5 60.5 2
      vertex 4.5 33.5 23
      vertex 4.5 33.5 2
    endloop
  endfacet
  facet normal 0 -1 0
    outer loop
      vertex 0 33.5 2
      vertex 4.5 33.5 23
      vertex 0 33.5 23
    endloop
  endfacet
  facet normal 0 -1 -0
    outer loop
      vertex 4.5 33.5 23
      vertex 0 33.5 2
      vertex 4.5 33.5 2
    endloop
  endfacet
  facet normal -1 0 0
    outer loop
      vertex 94.9 58.5 2
      vertex 94.9 60.5 23
      vertex 94.9 60.5 2
    endloop
  endfacet
  facet normal -1 -0 0
    outer loop
      vertex 94.9 60.5 23
      vertex 94.9 58.5 2
      vertex 94.9 58.5 23
    endloop
  endfacet
  facet normal 0 -1 0
    outer loop
      vertex 94.9 58.5 2
      vertex 99.4 58.5 23
      vertex 94.9 58.5 23
    endloop
  endfacet
  facet normal 0 -1 -0
    outer loop
      vertex 99.4 58.5 23
      vertex 94.9 58.5 2
      vertex 99.4 58.5 2
    endloop
  endfacet
  facet normal 0 -1 0
    outer loop
      vertex 4.5 60.5 23
      vertex 6.9 60.5 4
      vertex 6.9 60.5 23
    endloop
  endfacet
  facet normal 0 -1 -0
    outer loop
      vertex 6.9 60.5 4
      vertex 4.5 60.5 2
      vertex 92.5 60.5 4
    endloop
  endfacet
  facet normal 0 -1 0
    outer loop
      vertex 4.5 60.5 2
      vertex 6.9 60.5 4
      vertex 4.5 60.5 23
    endloop
  endfacet
  facet normal 0 -1 0
    outer loop
      vertex 92.5 60.5 4
      vertex 94.9 60.5 23
      vertex 92.5 60.5 23
    endloop
  endfacet
  facet normal 0 -1 0
    outer loop
      vertex 92.5 60.5 4
      vertex 94.9 60.5 2
      vertex 94.9 60.5 23
    endloop
  endfacet
  facet normal 0 -1 0
    outer loop
      vertex 94.9 60.5 2
      vertex 92.5 60.5 4
      vertex 4.5 60.5 2
    endloop
  endfacet
  facet normal 1 -0 0
    outer loop
      vertex 6.9 60.5 23
      vertex 6.9 63.5 4
      vertex 6.9 63.5 23
    endloop
  endfacet
  facet normal 1 0 0
    outer loop
      vertex 6.9 63.5 4
      vertex 6.9 60.5 23
      vertex 6.9 60.5 4
    endloop
  endfacet
  facet normal -1 0 0
    outer loop
      vertex 92.5 60.5 4
      vertex 92.5 63.5 23
      vertex 92.5 63.5 4
    endloop
  endfacet
  facet normal -1 -0 0
    outer loop
      vertex 92.5 63.5 23
      vertex 92.5 60.5 4
      vertex 92.5 60.5 23
    endloop
  endfacet
  facet normal -0 0 1
    outer loop
      vertex 6.9 63.5 4
      vertex 92.5 60.5 4
      vertex 92.5 63.5 4
    endloop
  endfacet
  facet normal 0 0 1
    outer loop
      vertex 92.5 60.5 4
      vertex 6.9 63.5 4
      vertex 6.9 60.5 4
    endloop
  endfacet
  facet normal 1 -0 0
    outer loop
      vertex 45 63.5 23
      vertex 45 66.5 15.4208
      vertex 45 66.5 23
    endloop
  endfacet
  facet normal 1 0 0
    outer loop
      vertex 45 66.5 15.4208
      vertex 45 63.5 23
      vertex 45 63.5 15.4208
    endloop
  endfacet
  facet normal -1 0 0
    outer loop
      vertex 92.4 63.5 15.4208
      vertex 92.4 66.5 23
      vertex 92.4 66.5 15.4208
    endloop
  endfacet
  facet normal -1 -0 0
    outer loop
      vertex 92.4 66.5 23
      vertex 92.4 63.5 15.4208
      vertex 92.4 63.5 23
    endloop
  endfacet
  facet normal -0 0 1
    outer loop
      vertex 50.0558 66.5 6.5
      vertex 87.3442 63.5 6.5
      vertex 87.3442 66.5 6.5
    endloop
  endfacet
  facet normal 0 0 1
    outer loop
      vertex 87.3442 63.5 6.5
      vertex 50.0558 66.5 6.5
      vertex 50.0558 63.5 6.5
    endloop
  endfacet
  facet normal 0.95694 -0 0.290285
    outer loop
      vertex 45 63.5 15.4208
      vertex 45.603 66.5 13.4329
      vertex 45 66.5 15.4208
    endloop
  endfacet
  facet normal 0.95694 0 0.290285
    outer loop
      vertex 45.603 66.5 13.4329
      vertex 45 63.5 15.4208
      vertex 45.603 63.5 13.4329
    endloop
  endfacet
  facet normal -0.881921 0 0.471397
    outer loop
      vertex 89.4867 63.5 9.11074
      vertex 91.797 66.5 13.4329
      vertex 89.4867 66.5 9.11074
    endloop
  endfacet
  facet normal -0.881921 0 0.471397
    outer loop
      vertex 91.797 66.5 13.4329
      vertex 89.4867 63.5 9.11074
      vertex 91.797 63.5 13.4329
    endloop
  endfacet
  facet normal -0.95694 0 0.290285
    outer loop
      vertex 91.797 63.5 13.4329
      vertex 92.4 66.5 15.4208
      vertex 91.797 66.5 13.4329
    endloop
  endfacet
  facet normal -0.95694 0 0.290285
    outer loop
      vertex 92.4 66.5 15.4208
      vertex 91.797 63.5 13.4329
      vertex 92.4 63.5 15.4208
    endloop
  endfacet
  facet normal -0.773011 0 0.634393
    outer loop
      vertex 87.3442 63.5 6.5
      vertex 89.4867 66.5 9.11074
      vertex 87.3442 66.5 6.5
    endloop
  endfacet
  facet normal -0.773011 0 0.634393
    outer loop
      vertex 89.4867 66.5 9.11074
      vertex 87.3442 63.5 6.5
      vertex 89.4867 63.5 9.11074
    endloop
  endfacet
  facet normal 0.773011 -0 0.634393
    outer loop
      vertex 47.9133 63.5 9.11074
      vertex 50.0558 66.5 6.5
      vertex 47.9133 66.5 9.11074
    endloop
  endfacet
  facet normal 0.773011 0 0.634393
    outer loop
      vertex 50.0558 66.5 6.5
      vertex 47.9133 63.5 9.11074
      vertex 50.0558 63.5 6.5
    endloop
  endfacet
  facet normal 0.881921 -0 0.471397
    outer loop
      vertex 45.603 63.5 13.4329
      vertex 47.9133 66.5 9.11074
      vertex 45.603 66.5 13.4329
    endloop
  endfacet
  facet normal 0.881921 0 0.471397
    outer loop
      vertex 47.9133 66.5 9.11074
      vertex 45.603 63.5 13.4329
      vertex 47.9133 63.5 9.11074
    endloop
  endfacet
  facet normal -0.980785 -0.19509 0
    outer loop
      vertex 11.8 55.5 0
      vertex 11.663 56.1888 2
      vertex 11.663 56.1888 0
    endloop
  endfacet
  facet normal -0.980785 -0.19509 0
    outer loop
      vertex 11.663 56.1888 2
      vertex 11.8 55.5 0
      vertex 11.8 55.5 2
    endloop
  endfacet
  facet normal 0.19509 -0.980785 0
    outer loop
      vertex 9.31117 57.163 0
      vertex 10 57.3 2
      vertex 9.31117 57.163 2
    endloop
  endfacet
  facet normal 0.19509 -0.980785 0
    outer loop
      vertex 10 57.3 2
      vertex 9.31117 57.163 0
      vertex 10 57.3 0
    endloop
  endfacet
  facet normal -0.555569 -0.83147 0
    outer loop
      vertex 10.6888 57.163 0
      vertex 11.2728 56.7728 2
      vertex 10.6888 57.163 2
    endloop
  endfacet
  facet normal -0.555569 -0.83147 -0
    outer loop
      vertex 11.2728 56.7728 2
      vertex 10.6888 57.163 0
      vertex 11.2728 56.7728 0
    endloop
  endfacet
  facet normal -0.831471 -0.555568 0
    outer loop
      vertex 11.663 56.1888 0
      vertex 11.2728 56.7728 2
      vertex 11.2728 56.7728 0
    endloop
  endfacet
  facet normal -0.831471 -0.555568 0
    outer loop
      vertex 11.2728 56.7728 2
      vertex 11.663 56.1888 0
      vertex 11.663 56.1888 2
    endloop
  endfacet
  facet normal -0.19509 -0.980785 0
    outer loop
      vertex 10 57.3 0
      vertex 10.6888 57.163 2
      vertex 10 57.3 2
    endloop
  endfacet
  facet normal -0.19509 -0.980785 -0
    outer loop
      vertex 10.6888 57.163 2
      vertex 10 57.3 0
      vertex 10.6888 57.163 0
    endloop
  endfacet
  facet normal 0.831471 -0.555568 0
    outer loop
      vertex 8.33702 56.1888 2
      vertex 8.72721 56.7728 0
      vertex 8.72721 56.7728 2
    endloop
  endfacet
  facet normal 0.831471 -0.555568 0
    outer loop
      vertex 8.72721 56.7728 0
      vertex 8.33702 56.1888 2
      vertex 8.33702 56.1888 0
    endloop
  endfacet
  facet normal 0.980785 -0.19509 0
    outer loop
      vertex 8.2 55.5 2
      vertex 8.33702 56.1888 0
      vertex 8.33702 56.1888 2
    endloop
  endfacet
  facet normal 0.980785 -0.19509 0
    outer loop
      vertex 8.33702 56.1888 0
      vertex 8.2 55.5 2
      vertex 8.2 55.5 0
    endloop
  endfacet
  facet normal 0.555569 -0.83147 0
    outer loop
      vertex 8.72721 56.7728 0
      vertex 9.31117 57.163 2
      vertex 8.72721 56.7728 2
    endloop
  endfacet
  facet normal 0.555569 -0.83147 0
    outer loop
      vertex 9.31117 57.163 2
      vertex 8.72721 56.7728 0
      vertex 9.31117 57.163 0
    endloop
  endfacet
  facet normal -0.19509 0.980785 0
    outer loop
      vertex 10.6888 38.837 0
      vertex 10 38.7 2
      vertex 10.6888 38.837 2
    endloop
  endfacet
  facet normal -0.19509 0.980785 0
    outer loop
      vertex 10 38.7 2
      vertex 10.6888 38.837 0
      vertex 10 38.7 0
    endloop
  endfacet
  facet normal -0.980785 0.195089 0
    outer loop
      vertex 11.663 39.8112 0
      vertex 11.8 40.5 2
      vertex 11.8 40.5 0
    endloop
  endfacet
  facet normal -0.980785 0.195089 0
    outer loop
      vertex 11.8 40.5 2
      vertex 11.663 39.8112 0
      vertex 11.663 39.8112 2
    endloop
  endfacet
  facet normal -0.555569 0.83147 0
    outer loop
      vertex 11.2728 39.2272 0
      vertex 10.6888 38.837 2
      vertex 11.2728 39.2272 2
    endloop
  endfacet
  facet normal -0.555569 0.83147 0
    outer loop
      vertex 10.6888 38.837 2
      vertex 11.2728 39.2272 0
      vertex 10.6888 38.837 0
    endloop
  endfacet
  facet normal 0.19509 0.980785 -0
    outer loop
      vertex 10 38.7 0
      vertex 9.31117 38.837 2
      vertex 10 38.7 2
    endloop
  endfacet
  facet normal 0.19509 0.980785 0
    outer loop
      vertex 9.31117 38.837 2
      vertex 10 38.7 0
      vertex 9.31117 38.837 0
    endloop
  endfacet
  facet normal 0.831469 0.555571 0
    outer loop
      vertex 8.72721 39.2272 2
      vertex 8.33702 39.8112 0
      vertex 8.33702 39.8112 2
    endloop
  endfacet
  facet normal 0.831469 0.555571 0
    outer loop
      vertex 8.33702 39.8112 0
      vertex 8.72721 39.2272 2
      vertex 8.72721 39.2272 0
    endloop
  endfacet
  facet normal 0.980785 0.195089 0
    outer loop
      vertex 8.33702 39.8112 2
      vertex 8.2 40.5 0
      vertex 8.2 40.5 2
    endloop
  endfacet
  facet normal 0.980785 0.195089 0
    outer loop
      vertex 8.2 40.5 0
      vertex 8.33702 39.8112 2
      vertex 8.33702 39.8112 0
    endloop
  endfacet
  facet normal -0.831469 0.555571 0
    outer loop
      vertex 11.2728 39.2272 0
      vertex 11.663 39.8112 2
      vertex 11.663 39.8112 0
    endloop
  endfacet
  facet normal -0.831469 0.555571 0
    outer loop
      vertex 11.663 39.8112 2
      vertex 11.2728 39.2272 0
      vertex 11.2728 39.2272 2
    endloop
  endfacet
  facet normal 0.555569 0.83147 -0
    outer loop
      vertex 9.31117 38.837 0
      vertex 8.72721 39.2272 2
      vertex 9.31117 38.837 2
    endloop
  endfacet
  facet normal 0.555569 0.83147 0
    outer loop
      vertex 8.72721 39.2272 2
      vertex 9.31117 38.837 0
      vertex 8.72721 39.2272 0
    endloop
  endfacet
  facet normal 1 -0 0
    outer loop
      vertex 8.2 40.5 2
      vertex 8.2 55.5 0
      vertex 8.2 55.5 2
    endloop
  endfacet
  facet normal 1 0 0
    outer loop
      vertex 8.2 55.5 0
      vertex 8.2 40.5 2
      vertex 8.2 40.5 0
    endloop
  endfacet
  facet normal -1 0 0
    outer loop
      vertex 11.8 40.5 0
      vertex 11.8 55.5 2
      vertex 11.8 55.5 0
    endloop
  endfacet
  facet normal -1 -0 0
    outer loop
      vertex 11.8 55.5 2
      vertex 11.8 40.5 0
      vertex 11.8 40.5 2
    endloop
  endfacet
  facet normal -0.980785 -0.19509 0
    outer loop
      vertex 21.8 55.5 0
      vertex 21.663 56.1888 2
      vertex 21.663 56.1888 0
    endloop
  endfacet
  facet normal -0.980785 -0.19509 0
    outer loop
      vertex 21.663 56.1888 2
      vertex 21.8 55.5 0
      vertex 21.8 55.5 2
    endloop
  endfacet
  facet normal 0.195089 -0.980785 0
    outer loop
      vertex 19.3112 57.163 0
      vertex 20 57.3 2
      vertex 19.3112 57.163 2
    endloop
  endfacet
  facet normal 0.195089 -0.980785 0
    outer loop
      vertex 20 57.3 2
      vertex 19.3112 57.163 0
      vertex 20 57.3 0
    endloop
  endfacet
  facet normal -0.555569 -0.831471 0
    outer loop
      vertex 20.6888 57.163 0
      vertex 21.2728 56.7728 2
      vertex 20.6888 57.163 2
    endloop
  endfacet
  facet normal -0.555569 -0.831471 -0
    outer loop
      vertex 21.2728 56.7728 2
      vertex 20.6888 57.163 0
      vertex 21.2728 56.7728 0
    endloop
  endfacet
  facet normal -0.831472 -0.555567 0
    outer loop
      vertex 21.663 56.1888 0
      vertex 21.2728 56.7728 2
      vertex 21.2728 56.7728 0
    endloop
  endfacet
  facet normal -0.831472 -0.555567 0
    outer loop
      vertex 21.2728 56.7728 2
      vertex 21.663 56.1888 0
      vertex 21.663 56.1888 2
    endloop
  endfacet
  facet normal -0.19509 -0.980785 0
    outer loop
      vertex 20 57.3 0
      vertex 20.6888 57.163 2
      vertex 20 57.3 2
    endloop
  endfacet
  facet normal -0.19509 -0.980785 -0
    outer loop
      vertex 20.6888 57.163 2
      vertex 20 57.3 0
      vertex 20.6888 57.163 0
    endloop
  endfacet
  facet normal 0.831472 -0.555567 0
    outer loop
      vertex 18.337 56.1888 2
      vertex 18.7272 56.7728 0
      vertex 18.7272 56.7728 2
    endloop
  endfacet
  facet normal 0.831472 -0.555567 0
    outer loop
      vertex 18.7272 56.7728 0
      vertex 18.337 56.1888 2
      vertex 18.337 56.1888 0
    endloop
  endfacet
  facet normal 0.980785 -0.19509 0
    outer loop
      vertex 18.2 55.5 2
      vertex 18.337 56.1888 0
      vertex 18.337 56.1888 2
    endloop
  endfacet
  facet normal 0.980785 -0.19509 0
    outer loop
      vertex 18.337 56.1888 0
      vertex 18.2 55.5 2
      vertex 18.2 55.5 0
    endloop
  endfacet
  facet normal 0.55557 -0.83147 0
    outer loop
      vertex 18.7272 56.7728 0
      vertex 19.3112 57.163 2
      vertex 18.7272 56.7728 2
    endloop
  endfacet
  facet normal 0.55557 -0.83147 0
    outer loop
      vertex 19.3112 57.163 2
      vertex 18.7272 56.7728 0
      vertex 19.3112 57.163 0
    endloop
  endfacet
  facet normal -0.19509 0.980785 0
    outer loop
      vertex 20.6888 38.837 0
      vertex 20 38.7 2
      vertex 20.6888 38.837 2
    endloop
  endfacet
  facet normal -0.19509 0.980785 0
    outer loop
      vertex 20 38.7 2
      vertex 20.6888 38.837 0
      vertex 20 38.7 0
    endloop
  endfacet
  facet normal -0.555569 0.831471 0
    outer loop
      vertex 21.2728 39.2272 0
      vertex 20.6888 38.837 2
      vertex 21.2728 39.2272 2
    endloop
  endfacet
  facet normal -0.555569 0.831471 0
    outer loop
      vertex 20.6888 38.837 2
      vertex 21.2728 39.2272 0
      vertex 20.6888 38.837 0
    endloop
  endfacet
  facet normal -0.980785 0.195089 0
    outer loop
      vertex 21.663 39.8112 0
      vertex 21.8 40.5 2
      vertex 21.8 40.5 0
    endloop
  endfacet
  facet normal -0.980785 0.195089 0
    outer loop
      vertex 21.8 40.5 2
      vertex 21.663 39.8112 0
      vertex 21.663 39.8112 2
    endloop
  endfacet
  facet normal 0.195089 0.980785 -0
    outer loop
      vertex 20 38.7 0
      vertex 19.3112 38.837 2
      vertex 20 38.7 2
    endloop
  endfacet
  facet normal 0.195089 0.980785 0
    outer loop
      vertex 19.3112 38.837 2
      vertex 20 38.7 0
      vertex 19.3112 38.837 0
    endloop
  endfacet
  facet normal 0.83147 0.55557 0
    outer loop
      vertex 18.7272 39.2272 2
      vertex 18.337 39.8112 0
      vertex 18.337 39.8112 2
    endloop
  endfacet
  facet normal 0.83147 0.55557 0
    outer loop
      vertex 18.337 39.8112 0
      vertex 18.7272 39.2272 2
      vertex 18.7272 39.2272 0
    endloop
  endfacet
  facet normal 0.980785 0.195089 0
    outer loop
      vertex 18.337 39.8112 2
      vertex 18.2 40.5 0
      vertex 18.2 40.5 2
    endloop
  endfacet
  facet normal 0.980785 0.195089 0
    outer loop
      vertex 18.2 40.5 0
      vertex 18.337 39.8112 2
      vertex 18.337 39.8112 0
    endloop
  endfacet
  facet normal -0.83147 0.55557 0
    outer loop
      vertex 21.2728 39.2272 0
      vertex 21.663 39.8112 2
      vertex 21.663 39.8112 0
    endloop
  endfacet
  facet normal -0.83147 0.55557 0
    outer loop
      vertex 21.663 39.8112 2
      vertex 21.2728 39.2272 0
      vertex 21.2728 39.2272 2
    endloop
  endfacet
  facet normal 0.55557 0.83147 -0
    outer loop
      vertex 19.3112 38.837 0
      vertex 18.7272 39.2272 2
      vertex 19.3112 38.837 2
    endloop
  endfacet
  facet normal 0.55557 0.83147 0
    outer loop
      vertex 18.7272 39.2272 2
      vertex 19.3112 38.837 0
      vertex 18.7272 39.2272 0
    endloop
  endfacet
  facet normal 1 -0 0
    outer loop
      vertex 18.2 40.5 2
      vertex 18.2 55.5 0
      vertex 18.2 55.5 2
    endloop
  endfacet
  facet normal 1 0 0
    outer loop
      vertex 18.2 55.5 0
      vertex 18.2 40.5 2
      vertex 18.2 40.5 0
    endloop
  endfacet
  facet normal -1 0 0
    outer loop
      vertex 21.8 40.5 0
      vertex 21.8 55.5 2
      vertex 21.8 55.5 0
    endloop
  endfacet
  facet normal -1 -0 0
    outer loop
      vertex 21.8 55.5 2
      vertex 21.8 40.5 0
      vertex 21.8 40.5 2
    endloop
  endfacet
  facet normal -0.980785 -0.19509 0
    outer loop
      vertex 31.8 55.5 0
      vertex 31.663 56.1888 2
      vertex 31.663 56.1888 0
    endloop
  endfacet
  facet normal -0.980785 -0.19509 0
    outer loop
      vertex 31.663 56.1888 2
      vertex 31.8 55.5 0
      vertex 31.8 55.5 2
    endloop
  endfacet
  facet normal -0.19509 -0.980785 0
    outer loop
      vertex 30 57.3 0
      vertex 30.6888 57.163 2
      vertex 30 57.3 2
    endloop
  endfacet
  facet normal -0.19509 -0.980785 -0
    outer loop
      vertex 30.6888 57.163 2
      vertex 30 57.3 0
      vertex 30.6888 57.163 0
    endloop
  endfacet
  facet normal -0.555569 -0.831471 0
    outer loop
      vertex 30.6888 57.163 0
      vertex 31.2728 56.7728 2
      vertex 30.6888 57.163 2
    endloop
  endfacet
  facet normal -0.555569 -0.831471 -0
    outer loop
      vertex 31.2728 56.7728 2
      vertex 30.6888 57.163 0
      vertex 31.2728 56.7728 0
    endloop
  endfacet
  facet normal -0.831472 -0.555567 0
    outer loop
      vertex 31.663 56.1888 0
      vertex 31.2728 56.7728 2
      vertex 31.2728 56.7728 0
    endloop
  endfacet
  facet normal -0.831472 -0.555567 0
    outer loop
      vertex 31.2728 56.7728 2
      vertex 31.663 56.1888 0
      vertex 31.663 56.1888 2
    endloop
  endfacet
  facet normal 0.195089 -0.980785 0
    outer loop
      vertex 29.3112 57.163 0
      vertex 30 57.3 2
      vertex 29.3112 57.163 2
    endloop
  endfacet
  facet normal 0.195089 -0.980785 0
    outer loop
      vertex 30 57.3 2
      vertex 29.3112 57.163 0
      vertex 30 57.3 0
    endloop
  endfacet
  facet normal 0.55557 -0.83147 0
    outer loop
      vertex 28.7272 56.7728 0
      vertex 29.3112 57.163 2
      vertex 28.7272 56.7728 2
    endloop
  endfacet
  facet normal 0.55557 -0.83147 0
    outer loop
      vertex 29.3112 57.163 2
      vertex 28.7272 56.7728 0
      vertex 29.3112 57.163 0
    endloop
  endfacet
  facet normal 0.980785 -0.19509 0
    outer loop
      vertex 28.2 55.5 2
      vertex 28.337 56.1888 0
      vertex 28.337 56.1888 2
    endloop
  endfacet
  facet normal 0.980785 -0.19509 0
    outer loop
      vertex 28.337 56.1888 0
      vertex 28.2 55.5 2
      vertex 28.2 55.5 0
    endloop
  endfacet
  facet normal 0.831472 -0.555567 0
    outer loop
      vertex 28.337 56.1888 2
      vertex 28.7272 56.7728 0
      vertex 28.7272 56.7728 2
    endloop
  endfacet
  facet normal 0.831472 -0.555567 0
    outer loop
      vertex 28.7272 56.7728 0
      vertex 28.337 56.1888 2
      vertex 28.337 56.1888 0
    endloop
  endfacet
  facet normal 0.980785 0.195089 0
    outer loop
      vertex 28.337 39.8112 2
      vertex 28.2 40.5 0
      vertex 28.2 40.5 2
    endloop
  endfacet
  facet normal 0.980785 0.195089 0
    outer loop
      vertex 28.2 40.5 0
      vertex 28.337 39.8112 2
      vertex 28.337 39.8112 0
    endloop
  endfacet
  facet normal -0.19509 0.980785 0
    outer loop
      vertex 30.6888 38.837 0
      vertex 30 38.7 2
      vertex 30.6888 38.837 2
    endloop
  endfacet
  facet normal -0.19509 0.980785 0
    outer loop
      vertex 30 38.7 2
      vertex 30.6888 38.837 0
      vertex 30 38.7 0
    endloop
  endfacet
  facet normal -0.980785 0.195089 0
    outer loop
      vertex 31.663 39.8112 0
      vertex 31.8 40.5 2
      vertex 31.8 40.5 0
    endloop
  endfacet
  facet normal -0.980785 0.195089 0
    outer loop
      vertex 31.8 40.5 2
      vertex 31.663 39.8112 0
      vertex 31.663 39.8112 2
    endloop
  endfacet
  facet normal -0.555569 0.831471 0
    outer loop
      vertex 31.2728 39.2272 0
      vertex 30.6888 38.837 2
      vertex 31.2728 39.2272 2
    endloop
  endfacet
  facet normal -0.555569 0.831471 0
    outer loop
      vertex 30.6888 38.837 2
      vertex 31.2728 39.2272 0
      vertex 30.6888 38.837 0
    endloop
  endfacet
  facet normal -0.83147 0.55557 0
    outer loop
      vertex 31.2728 39.2272 0
      vertex 31.663 39.8112 2
      vertex 31.663 39.8112 0
    endloop
  endfacet
  facet normal -0.83147 0.55557 0
    outer loop
      vertex 31.663 39.8112 2
      vertex 31.2728 39.2272 0
      vertex 31.2728 39.2272 2
    endloop
  endfacet
  facet normal 0.83147 0.55557 0
    outer loop
      vertex 28.7272 39.2272 2
      vertex 28.337 39.8112 0
      vertex 28.337 39.8112 2
    endloop
  endfacet
  facet normal 0.83147 0.55557 0
    outer loop
      vertex 28.337 39.8112 0
      vertex 28.7272 39.2272 2
      vertex 28.7272 39.2272 0
    endloop
  endfacet
  facet normal 0.195089 0.980785 -0
    outer loop
      vertex 30 38.7 0
      vertex 29.3112 38.837 2
      vertex 30 38.7 2
    endloop
  endfacet
  facet normal 0.195089 0.980785 0
    outer loop
      vertex 29.3112 38.837 2
      vertex 30 38.7 0
      vertex 29.3112 38.837 0
    endloop
  endfacet
  facet normal 0.55557 0.83147 -0
    outer loop
      vertex 29.3112 38.837 0
      vertex 28.7272 39.2272 2
      vertex 29.3112 38.837 2
    endloop
  endfacet
  facet normal 0.55557 0.83147 0
    outer loop
      vertex 28.7272 39.2272 2
      vertex 29.3112 38.837 0
      vertex 28.7272 39.2272 0
    endloop
  endfacet
  facet normal 1 -0 0
    outer loop
      vertex 28.2 40.5 2
      vertex 28.2 55.5 0
      vertex 28.2 55.5 2
    endloop
  endfacet
  facet normal 1 0 0
    outer loop
      vertex 28.2 55.5 0
      vertex 28.2 40.5 2
      vertex 28.2 40.5 0
    endloop
  endfacet
  facet normal -1 0 0
    outer loop
      vertex 31.8 40.5 0
      vertex 31.8 55.5 2
      vertex 31.8 55.5 0
    endloop
  endfacet
  facet normal -1 -0 0
    outer loop
      vertex 31.8 55.5 2
      vertex 31.8 40.5 0
      vertex 31.8 40.5 2
    endloop
  endfacet
  facet normal -0.980785 -0.19509 0
    outer loop
      vertex 41.8 55.5 0
      vertex 41.663 56.1888 2
      vertex 41.663 56.1888 0
    endloop
  endfacet
  facet normal -0.980785 -0.19509 0
    outer loop
      vertex 41.663 56.1888 2
      vertex 41.8 55.5 0
      vertex 41.8 55.5 2
    endloop
  endfacet
  facet normal 0.195089 -0.980785 0
    outer loop
      vertex 39.3112 57.163 0
      vertex 40 57.3 2
      vertex 39.3112 57.163 2
    endloop
  endfacet
  facet normal 0.195089 -0.980785 0
    outer loop
      vertex 40 57.3 2
      vertex 39.3112 57.163 0
      vertex 40 57.3 0
    endloop
  endfacet
  facet normal -0.555567 -0.831472 0
    outer loop
      vertex 40.6888 57.163 0
      vertex 41.2728 56.7728 2
      vertex 40.6888 57.163 2
    endloop
  endfacet
  facet normal -0.555567 -0.831472 -0
    outer loop
      vertex 41.2728 56.7728 2
      vertex 40.6888 57.163 0
      vertex 41.2728 56.7728 0
    endloop
  endfacet
  facet normal -0.831472 -0.555567 0
    outer loop
      vertex 41.663 56.1888 0
      vertex 41.2728 56.7728 2
      vertex 41.2728 56.7728 0
    endloop
  endfacet
  facet normal -0.831472 -0.555567 0
    outer loop
      vertex 41.2728 56.7728 2
      vertex 41.663 56.1888 0
      vertex 41.663 56.1888 2
    endloop
  endfacet
  facet normal -0.19509 -0.980785 0
    outer loop
      vertex 40 57.3 0
      vertex 40.6888 57.163 2
      vertex 40 57.3 2
    endloop
  endfacet
  facet normal -0.19509 -0.980785 -0
    outer loop
      vertex 40.6888 57.163 2
      vertex 40 57.3 0
      vertex 40.6888 57.163 0
    endloop
  endfacet
  facet normal 0.831472 -0.555567 0
    outer loop
      vertex 38.337 56.1888 2
      vertex 38.7272 56.7728 0
      vertex 38.7272 56.7728 2
    endloop
  endfacet
  facet normal 0.831472 -0.555567 0
    outer loop
      vertex 38.7272 56.7728 0
      vertex 38.337 56.1888 2
      vertex 38.337 56.1888 0
    endloop
  endfacet
  facet normal 0.980785 -0.19509 0
    outer loop
      vertex 38.2 55.5 2
      vertex 38.337 56.1888 0
      vertex 38.337 56.1888 2
    endloop
  endfacet
  facet normal 0.980785 -0.19509 0
    outer loop
      vertex 38.337 56.1888 0
      vertex 38.2 55.5 2
      vertex 38.2 55.5 0
    endloop
  endfacet
  facet normal 0.55557 -0.83147 0
    outer loop
      vertex 38.7272 56.7728 0
      vertex 39.3112 57.163 2
      vertex 38.7272 56.7728 2
    endloop
  endfacet
  facet normal 0.55557 -0.83147 0
    outer loop
      vertex 39.3112 57.163 2
      vertex 38.7272 56.7728 0
      vertex 39.3112 57.163 0
    endloop
  endfacet
  facet normal -0.19509 0.980785 0
    outer loop
      vertex 40.6888 38.837 0
      vertex 40 38.7 2
      vertex 40.6888 38.837 2
    endloop
  endfacet
  facet normal -0.19509 0.980785 0
    outer loop
      vertex 40 38.7 2
      vertex 40.6888 38.837 0
      vertex 40 38.7 0
    endloop
  endfacet
  facet normal -0.980785 0.195089 0
    outer loop
      vertex 41.663 39.8112 0
      vertex 41.8 40.5 2
      vertex 41.8 40.5 0
    endloop
  endfacet
  facet normal -0.980785 0.195089 0
    outer loop
      vertex 41.8 40.5 2
      vertex 41.663 39.8112 0
      vertex 41.663 39.8112 2
    endloop
  endfacet
  facet normal -0.555567 0.831472 0
    outer loop
      vertex 41.2728 39.2272 0
      vertex 40.6888 38.837 2
      vertex 41.2728 39.2272 2
    endloop
  endfacet
  facet normal -0.555567 0.831472 0
    outer loop
      vertex 40.6888 38.837 2
      vertex 41.2728 39.2272 0
      vertex 40.6888 38.837 0
    endloop
  endfacet
  facet normal 0.195089 0.980785 -0
    outer loop
      vertex 40 38.7 0
      vertex 39.3112 38.837 2
      vertex 40 38.7 2
    endloop
  endfacet
  facet normal 0.195089 0.980785 0
    outer loop
      vertex 39.3112 38.837 2
      vertex 40 38.7 0
      vertex 39.3112 38.837 0
    endloop
  endfacet
  facet normal 0.83147 0.55557 0
    outer loop
      vertex 38.7272 39.2272 2
      vertex 38.337 39.8112 0
      vertex 38.337 39.8112 2
    endloop
  endfacet
  facet normal 0.83147 0.55557 0
    outer loop
      vertex 38.337 39.8112 0
      vertex 38.7272 39.2272 2
      vertex 38.7272 39.2272 0
    endloop
  endfacet
  facet normal 0.980785 0.195089 0
    outer loop
      vertex 38.337 39.8112 2
      vertex 38.2 40.5 0
      vertex 38.2 40.5 2
    endloop
  endfacet
  facet normal 0.980785 0.195089 0
    outer loop
      vertex 38.2 40.5 0
      vertex 38.337 39.8112 2
      vertex 38.337 39.8112 0
    endloop
  endfacet
  facet normal -0.83147 0.55557 0
    outer loop
      vertex 41.2728 39.2272 0
      vertex 41.663 39.8112 2
      vertex 41.663 39.8112 0
    endloop
  endfacet
  facet normal -0.83147 0.55557 0
    outer loop
      vertex 41.663 39.8112 2
      vertex 41.2728 39.2272 0
      vertex 41.2728 39.2272 2
    endloop
  endfacet
  facet normal 0.55557 0.83147 -0
    outer loop
      vertex 39.3112 38.837 0
      vertex 38.7272 39.2272 2
      vertex 39.3112 38.837 2
    endloop
  endfacet
  facet normal 0.55557 0.83147 0
    outer loop
      vertex 38.7272 39.2272 2
      vertex 39.3112 38.837 0
      vertex 38.7272 39.2272 0
    endloop
  endfacet
  facet normal 1 -0 0
    outer loop
      vertex 38.2 40.5 2
      vertex 38.2 55.5 0
      vertex 38.2 55.5 2
    endloop
  endfacet
  facet normal 1 0 0
    outer loop
      vertex 38.2 55.5 0
      vertex 38.2 40.5 2
      vertex 38.2 40.5 0
    endloop
  endfacet
  facet normal -1 0 0
    outer loop
      vertex 41.8 40.5 0
      vertex 41.8 55.5 2
      vertex 41.8 55.5 0
    endloop
  endfacet
  facet normal -1 -0 0
    outer loop
      vertex 41.8 55.5 2
      vertex 41.8 40.5 0
      vertex 41.8 40.5 2
    endloop
  endfacet
  facet normal 1 -0 0
    outer loop
      vertex 79.4 36.5 2
      vertex 79.4 58.5 0
      vertex 79.4 58.5 2
    endloop
  endfacet
  facet normal 1 0 0
    outer loop
      vertex 79.4 58.5 0
      vertex 79.4 36.5 2
      vertex 79.4 36.5 0
    endloop
  endfacet
  facet normal -1 0 0
    outer loop
      vertex 90.4 36.5 0
      vertex 90.4 58.5 2
      vertex 90.4 58.5 0
    endloop
  endfacet
  facet normal -1 -0 0
    outer loop
      vertex 90.4 58.5 2
      vertex 90.4 36.5 0
      vertex 90.4 36.5 2
    endloop
  endfacet
  facet normal 0 -1 0
    outer loop
      vertex 79.4 58.5 0
      vertex 90.4 58.5 2
      vertex 79.4 58.5 2
    endloop
  endfacet
  facet normal 0 -1 -0
    outer loop
      vertex 90.4 58.5 2
      vertex 79.4 58.5 0
      vertex 90.4 58.5 0
    endloop
  endfacet
  facet normal 0 1 -0
    outer loop
      vertex 90.4 36.5 0
      vertex 79.4 36.5 2
      vertex 90.4 36.5 2
    endloop
  endfacet
  facet normal 0 1 0
    outer loop
      vertex 79.4 36.5 2
      vertex 90.4 36.5 0
      vertex 79.4 36.5 0
    endloop
  endfacet
  facet normal 1 -0 0
    outer loop
      vertex 64.4 36.5 2
      vertex 64.4 58.5 0
      vertex 64.4 58.5 2
    endloop
  endfacet
  facet normal 1 0 0
    outer loop
      vertex 64.4 58.5 0
      vertex 64.4 36.5 2
      vertex 64.4 36.5 0
    endloop
  endfacet
  facet normal -1 0 0
    outer loop
      vertex 75.4 36.5 0
      vertex 75.4 58.5 2
      vertex 75.4 58.5 0
    endloop
  endfacet
  facet normal -1 -0 0
    outer loop
      vertex 75.4 58.5 2
      vertex 75.4 36.5 0
      vertex 75.4 36.5 2
    endloop
  endfacet
  facet normal 0 1 -0
    outer loop
      vertex 75.4 36.5 0
      vertex 64.4 36.5 2
      vertex 75.4 36.5 2
    endloop
  endfacet
  facet normal 0 1 0
    outer loop
      vertex 64.4 36.5 2
      vertex 75.4 36.5 0
      vertex 64.4 36.5 0
    endloop
  endfacet
  facet normal 0 -1 0
    outer loop
      vertex 64.4 58.5 0
      vertex 75.4 58.5 2
      vertex 64.4 58.5 2
    endloop
  endfacet
  facet normal 0 -1 -0
    outer loop
      vertex 75.4 58.5 2
      vertex 64.4 58.5 0
      vertex 75.4 58.5 0
    endloop
  endfacet
  facet normal 1 -0 0
    outer loop
      vertex 49.4 36.5 2
      vertex 49.4 58.5 0
      vertex 49.4 58.5 2
    endloop
  endfacet
  facet normal 1 0 0
    outer loop
      vertex 49.4 58.5 0
      vertex 49.4 36.5 2
      vertex 49.4 36.5 0
    endloop
  endfacet
  facet normal -1 0 0
    outer loop
      vertex 60.4 36.5 0
      vertex 60.4 58.5 2
      vertex 60.4 58.5 0
    endloop
  endfacet
  facet normal -1 -0 0
    outer loop
      vertex 60.4 58.5 2
      vertex 60.4 36.5 0
      vertex 60.4 36.5 2
    endloop
  endfacet
  facet normal 0 1 -0
    outer loop
      vertex 60.4 36.5 0
      vertex 49.4 36.5 2
      vertex 60.4 36.5 2
    endloop
  endfacet
  facet normal 0 1 0
    outer loop
      vertex 49.4 36.5 2
      vertex 60.4 36.5 0
      vertex 49.4 36.5 0
    endloop
  endfacet
  facet normal 0 -1 0
    outer loop
      vertex 49.4 58.5 0
      vertex 60.4 58.5 2
      vertex 49.4 58.5 2
    endloop
  endfacet
  facet normal 0 -1 -0
    outer loop
      vertex 60.4 58.5 2
      vertex 49.4 58.5 0
      vertex 60.4 58.5 0
    endloop
  endfacet
  facet normal -0.980785 0.19509 0
    outer loop
      vertex 92.063 8.81117 0
      vertex 92.2 9.5 2
      vertex 92.2 9.5 0
    endloop
  endfacet
  facet normal -0.980785 0.19509 0
    outer loop
      vertex 92.2 9.5 2
      vertex 92.063 8.81117 0
      vertex 92.063 8.81117 2
    endloop
  endfacet
  facet normal 0.195088 0.980786 -0
    outer loop
      vertex 90.4 7.7 0
      vertex 89.7112 7.83702 2
      vertex 90.4 7.7 2
    endloop
  endfacet
  facet normal 0.195088 0.980786 0
    outer loop
      vertex 89.7112 7.83702 2
      vertex 90.4 7.7 0
      vertex 89.7112 7.83702 0
    endloop
  endfacet
  facet normal 0.83147 0.555569 0
    outer loop
      vertex 89.1272 8.22721 2
      vertex 88.737 8.81117 0
      vertex 88.737 8.81117 2
    endloop
  endfacet
  facet normal 0.83147 0.555569 0
    outer loop
      vertex 88.737 8.81117 0
      vertex 89.1272 8.22721 2
      vertex 89.1272 8.22721 0
    endloop
  endfacet
  facet normal 0.980785 0.19509 0
    outer loop
      vertex 88.737 8.81117 2
      vertex 88.6 9.5 0
      vertex 88.6 9.5 2
    endloop
  endfacet
  facet normal 0.980785 0.19509 0
    outer loop
      vertex 88.6 9.5 0
      vertex 88.737 8.81117 2
      vertex 88.737 8.81117 0
    endloop
  endfacet
  facet normal -0.83147 0.555569 0
    outer loop
      vertex 91.6728 8.22721 0
      vertex 92.063 8.81117 2
      vertex 92.063 8.81117 0
    endloop
  endfacet
  facet normal -0.83147 0.555569 0
    outer loop
      vertex 92.063 8.81117 2
      vertex 91.6728 8.22721 0
      vertex 91.6728 8.22721 2
    endloop
  endfacet
  facet normal -0.555571 0.831469 0
    outer loop
      vertex 91.6728 8.22721 0
      vertex 91.0888 7.83702 2
      vertex 91.6728 8.22721 2
    endloop
  endfacet
  facet normal -0.555571 0.831469 0
    outer loop
      vertex 91.0888 7.83702 2
      vertex 91.6728 8.22721 0
      vertex 91.0888 7.83702 0
    endloop
  endfacet
  facet normal -0.19509 0.980785 0
    outer loop
      vertex 91.0888 7.83702 0
      vertex 90.4 7.7 2
      vertex 91.0888 7.83702 2
    endloop
  endfacet
  facet normal -0.19509 0.980785 0
    outer loop
      vertex 90.4 7.7 2
      vertex 91.0888 7.83702 0
      vertex 90.4 7.7 0
    endloop
  endfacet
  facet normal 0.555571 0.831469 -0
    outer loop
      vertex 89.7112 7.83702 0
      vertex 89.1272 8.22721 2
      vertex 89.7112 7.83702 2
    endloop
  endfacet
  facet normal 0.555571 0.831469 0
    outer loop
      vertex 89.1272 8.22721 2
      vertex 89.7112 7.83702 0
      vertex 89.1272 8.22721 0
    endloop
  endfacet
  facet normal -0.980785 -0.19509 0
    outer loop
      vertex 92.2 11.5 0
      vertex 92.063 12.1888 2
      vertex 92.063 12.1888 0
    endloop
  endfacet
  facet normal -0.980785 -0.19509 0
    outer loop
      vertex 92.063 12.1888 2
      vertex 92.2 11.5 0
      vertex 92.2 11.5 2
    endloop
  endfacet
  facet normal 0.195088 -0.980786 0
    outer loop
      vertex 89.7112 13.163 0
      vertex 90.4 13.3 2
      vertex 89.7112 13.163 2
    endloop
  endfacet
  facet normal 0.195088 -0.980786 0
    outer loop
      vertex 90.4 13.3 2
      vertex 89.7112 13.163 0
      vertex 90.4 13.3 0
    endloop
  endfacet
  facet normal -0.555571 -0.831469 0
    outer loop
      vertex 91.0888 13.163 0
      vertex 91.6728 12.7728 2
      vertex 91.0888 13.163 2
    endloop
  endfacet
  facet normal -0.555571 -0.831469 -0
    outer loop
      vertex 91.6728 12.7728 2
      vertex 91.0888 13.163 0
      vertex 91.6728 12.7728 0
    endloop
  endfacet
  facet normal -0.83147 -0.555569 0
    outer loop
      vertex 92.063 12.1888 0
      vertex 91.6728 12.7728 2
      vertex 91.6728 12.7728 0
    endloop
  endfacet
  facet normal -0.83147 -0.555569 0
    outer loop
      vertex 91.6728 12.7728 2
      vertex 92.063 12.1888 0
      vertex 92.063 12.1888 2
    endloop
  endfacet
  facet normal -0.19509 -0.980785 0
    outer loop
      vertex 90.4 13.3 0
      vertex 91.0888 13.163 2
      vertex 90.4 13.3 2
    endloop
  endfacet
  facet normal -0.19509 -0.980785 -0
    outer loop
      vertex 91.0888 13.163 2
      vertex 90.4 13.3 0
      vertex 91.0888 13.163 0
    endloop
  endfacet
  facet normal 0.83147 -0.555569 0
    outer loop
      vertex 88.737 12.1888 2
      vertex 89.1272 12.7728 0
      vertex 89.1272 12.7728 2
    endloop
  endfacet
  facet normal 0.83147 -0.555569 0
    outer loop
      vertex 89.1272 12.7728 0
      vertex 88.737 12.1888 2
      vertex 88.737 12.1888 0
    endloop
  endfacet
  facet normal 0.980785 -0.19509 0
    outer loop
      vertex 88.6 11.5 2
      vertex 88.737 12.1888 0
      vertex 88.737 12.1888 2
    endloop
  endfacet
  facet normal 0.980785 -0.19509 0
    outer loop
      vertex 88.737 12.1888 0
      vertex 88.6 11.5 2
      vertex 88.6 11.5 0
    endloop
  endfacet
  facet normal 0.555571 -0.831469 0
    outer loop
      vertex 89.1272 12.7728 0
      vertex 89.7112 13.163 2
      vertex 89.1272 12.7728 2
    endloop
  endfacet
  facet normal 0.555571 -0.831469 0
    outer loop
      vertex 89.7112 13.163 2
      vertex 89.1272 12.7728 0
      vertex 89.7112 13.163 0
    endloop
  endfacet
  facet normal 1 -0 0
    outer loop
      vertex 88.6 9.5 2
      vertex 88.6 11.5 0
      vertex 88.6 11.5 2
    endloop
  endfacet
  facet normal 1 0 0
    outer loop
      vertex 88.6 11.5 0
      vertex 88.6 9.5 2
      vertex 88.6 9.5 0
    endloop
  endfacet
  facet normal -1 0 0
    outer loop
      vertex 92.2 9.5 0
      vertex 92.2 11.5 2
      vertex 92.2 11.5 0
    endloop
  endfacet
  facet normal -1 -0 0
    outer loop
      vertex 92.2 11.5 2
      vertex 92.2 9.5 0
      vertex 92.2 9.5 2
    endloop
  endfacet
  facet normal 0.980785 0.195092 0
    outer loop
      vertex 28.737 6.31117 2
      vertex 28.6 7 0
      vertex 28.6 7 2
    endloop
  endfacet
  facet normal 0.980785 0.195092 0
    outer loop
      vertex 28.6 7 0
      vertex 28.737 6.31117 2
      vertex 28.737 6.31117 0
    endloop
  endfacet
  facet normal -0.555571 0.831469 0
    outer loop
      vertex 31.6728 5.72721 0
      vertex 31.0888 5.33702 2
      vertex 31.6728 5.72721 2
    endloop
  endfacet
  facet normal -0.555571 0.831469 0
    outer loop
      vertex 31.0888 5.33702 2
      vertex 31.6728 5.72721 0
      vertex 31.0888 5.33702 0
    endloop
  endfacet
  facet normal -0.19509 0.980785 0
    outer loop
      vertex 31.0888 5.33702 0
      vertex 30.4 5.2 2
      vertex 31.0888 5.33702 2
    endloop
  endfacet
  facet normal -0.19509 0.980785 0
    outer loop
      vertex 30.4 5.2 2
      vertex 31.0888 5.33702 0
      vertex 30.4 5.2 0
    endloop
  endfacet
  facet normal 0.831469 0.555571 0
    outer loop
      vertex 29.1272 5.72721 2
      vertex 28.737 6.31117 0
      vertex 28.737 6.31117 2
    endloop
  endfacet
  facet normal 0.831469 0.555571 0
    outer loop
      vertex 28.737 6.31117 0
      vertex 29.1272 5.72721 2
      vertex 29.1272 5.72721 0
    endloop
  endfacet
  facet normal 0.19509 0.980785 -0
    outer loop
      vertex 30.4 5.2 0
      vertex 29.7112 5.33702 2
      vertex 30.4 5.2 2
    endloop
  endfacet
  facet normal 0.19509 0.980785 0
    outer loop
      vertex 29.7112 5.33702 2
      vertex 30.4 5.2 0
      vertex 29.7112 5.33702 0
    endloop
  endfacet
  facet normal -0.83147 0.555569 0
    outer loop
      vertex 31.6728 5.72721 0
      vertex 32.063 6.31117 2
      vertex 32.063 6.31117 0
    endloop
  endfacet
  facet normal -0.83147 0.555569 0
    outer loop
      vertex 32.063 6.31117 2
      vertex 31.6728 5.72721 0
      vertex 31.6728 5.72721 2
    endloop
  endfacet
  facet normal -0.980784 0.195095 0
    outer loop
      vertex 32.063 6.31117 0
      vertex 32.2 7 2
      vertex 32.2 7 0
    endloop
  endfacet
  facet normal -0.980784 0.195095 0
    outer loop
      vertex 32.2 7 2
      vertex 32.063 6.31117 0
      vertex 32.063 6.31117 2
    endloop
  endfacet
  facet normal 0.555571 0.831469 -0
    outer loop
      vertex 29.7112 5.33702 0
      vertex 29.1272 5.72721 2
      vertex 29.7112 5.33702 2
    endloop
  endfacet
  facet normal 0.555571 0.831469 0
    outer loop
      vertex 29.1272 5.72721 2
      vertex 29.7112 5.33702 0
      vertex 29.1272 5.72721 0
    endloop
  endfacet
  facet normal -0.980784 -0.195095 0
    outer loop
      vertex 32.2 9 0
      vertex 32.063 9.68883 2
      vertex 32.063 9.68883 0
    endloop
  endfacet
  facet normal -0.980784 -0.195095 0
    outer loop
      vertex 32.063 9.68883 2
      vertex 32.2 9 0
      vertex 32.2 9 2
    endloop
  endfacet
  facet normal 0.19509 -0.980785 0
    outer loop
      vertex 29.7112 10.663 0
      vertex 30.4 10.8 2
      vertex 29.7112 10.663 2
    endloop
  endfacet
  facet normal 0.19509 -0.980785 0
    outer loop
      vertex 30.4 10.8 2
      vertex 29.7112 10.663 0
      vertex 30.4 10.8 0
    endloop
  endfacet
  facet normal -0.555571 -0.831469 0
    outer loop
      vertex 31.0888 10.663 0
      vertex 31.6728 10.2728 2
      vertex 31.0888 10.663 2
    endloop
  endfacet
  facet normal -0.555571 -0.831469 -0
    outer loop
      vertex 31.6728 10.2728 2
      vertex 31.0888 10.663 0
      vertex 31.6728 10.2728 0
    endloop
  endfacet
  facet normal -0.83147 -0.555569 0
    outer loop
      vertex 32.063 9.68883 0
      vertex 31.6728 10.2728 2
      vertex 31.6728 10.2728 0
    endloop
  endfacet
  facet normal -0.83147 -0.555569 0
    outer loop
      vertex 31.6728 10.2728 2
      vertex 32.063 9.68883 0
      vertex 32.063 9.68883 2
    endloop
  endfacet
  facet normal -0.19509 -0.980785 0
    outer loop
      vertex 30.4 10.8 0
      vertex 31.0888 10.663 2
      vertex 30.4 10.8 2
    endloop
  endfacet
  facet normal -0.19509 -0.980785 -0
    outer loop
      vertex 31.0888 10.663 2
      vertex 30.4 10.8 0
      vertex 31.0888 10.663 0
    endloop
  endfacet
  facet normal 0.831469 -0.555571 0
    outer loop
      vertex 28.737 9.68883 2
      vertex 29.1272 10.2728 0
      vertex 29.1272 10.2728 2
    endloop
  endfacet
  facet normal 0.831469 -0.555571 0
    outer loop
      vertex 29.1272 10.2728 0
      vertex 28.737 9.68883 2
      vertex 28.737 9.68883 0
    endloop
  endfacet
  facet normal 0.980785 -0.195092 0
    outer loop
      vertex 28.6 9 2
      vertex 28.737 9.68883 0
      vertex 28.737 9.68883 2
    endloop
  endfacet
  facet normal 0.980785 -0.195092 0
    outer loop
      vertex 28.737 9.68883 0
      vertex 28.6 9 2
      vertex 28.6 9 0
    endloop
  endfacet
  facet normal 0.555571 -0.831469 0
    outer loop
      vertex 29.1272 10.2728 0
      vertex 29.7112 10.663 2
      vertex 29.1272 10.2728 2
    endloop
  endfacet
  facet normal 0.555571 -0.831469 0
    outer loop
      vertex 29.7112 10.663 2
      vertex 29.1272 10.2728 0
      vertex 29.7112 10.663 0
    endloop
  endfacet
  facet normal 1 -0 0
    outer loop
      vertex 28.6 7 2
      vertex 28.6 9 0
      vertex 28.6 9 2
    endloop
  endfacet
  facet normal 1 0 0
    outer loop
      vertex 28.6 9 0
      vertex 28.6 7 2
      vertex 28.6 7 0
    endloop
  endfacet
  facet normal -1 0 0
    outer loop
      vertex 32.2 7 0
      vertex 32.2 9 2
      vertex 32.2 9 0
    endloop
  endfacet
  facet normal -1 -0 0
    outer loop
      vertex 32.2 9 2
      vertex 32.2 7 0
      vertex 32.2 7 2
    endloop
  endfacet
  facet normal -0.939693 -0.34202 0
    outer loop
      vertex 5.45955 0 0
      vertex 0 15 2
      vertex 0 15 0
    endloop
  endfacet
  facet normal -0.939693 -0.34202 0
    outer loop
      vertex 0 15 2
      vertex 5.45955 0 0
      vertex 5.45955 0 2
    endloop
  endfacet
  facet normal 0.939693 -0.34202 2.7869e-07
    outer loop
      vertex 93.9404 0 2
      vertex 95.9798 5.60307 0
      vertex 97.3479 9.36184 2
    endloop
  endfacet
  facet normal 0.939693 -0.34202 0
    outer loop
      vertex 95.9798 5.60307 0
      vertex 93.9404 0 2
      vertex 93.9404 0 0
    endloop
  endfacet
  facet normal 0.939692 -0.342021 1.63088e-07
    outer loop
      vertex 97.3479 9.36184 2
      vertex 99.4 15 0
      vertex 99.4 15 2
    endloop
  endfacet
  facet normal 0.939693 -0.34202 8.14781e-07
    outer loop
      vertex 99.4 15 0
      vertex 97.3479 9.36184 2
      vertex 95.9798 5.60307 0
    endloop
  endfacet
endsolid OpenSCAD_Model
